<?xml version="1.0" encoding="utf-8"?>
<!-- Generator: Adobe Illustrator 22.0.0, SVG Export Plug-In . SVG Version: 6.00 Build 0)  -->
<svg version="1.1" id="Layer_1" xmlns="http://www.w3.org/2000/svg" xmlns:xlink="http://www.w3.org/1999/xlink" x="0px" y="0px"
	 viewBox="0 0 512 512" style="enable-background:new 0 0 512 512;" xml:space="preserve">
<style type="text/css">
	.st0{fill:#34495E;}
</style>
<g>
	<path class="st0" d="M127.4,216.9h12.1c4.4,0,8-3.6,8-8v-12.1c0-4.4-3.6-8-8-8h-12.1c-4.4,0-8,3.6-8,8v12.1
		C119.3,213.3,122.9,216.9,127.4,216.9L127.4,216.9z M127.4,216.9"/>
	<path class="st0" d="M127.4,265.2h12.1c4.4,0,8-3.6,8-8v-12.1c0-4.4-3.6-8-8-8h-12.1c-4.4,0-8,3.6-8,8v12.1
		C119.3,261.6,122.9,265.2,127.4,265.2L127.4,265.2z M127.4,265.2"/>
	<path class="st0" d="M127.4,313.5h12.1c4.4,0,8-3.6,8-8v-12.1c0-4.4-3.6-8-8-8h-12.1c-4.4,0-8,3.6-8,8v12.1
		C119.3,309.9,122.9,313.5,127.4,313.5L127.4,313.5z M127.4,313.5"/>
	<path class="st0" d="M127.4,361.8h12.1c4.4,0,8-3.6,8-8v-12.1c0-4.4-3.6-8-8-8h-12.1c-4.4,0-8,3.6-8,8v12.1
		C119.3,358.2,122.9,361.8,127.4,361.8L127.4,361.8z M127.4,361.8"/>
	<path class="st0" d="M169.6,216.9h12.1c4.4,0,8-3.6,8-8v-12.1c0-4.4-3.6-8-8-8h-12.1c-4.4,0-8,3.6-8,8v12.1
		C161.6,213.3,165.2,216.9,169.6,216.9L169.6,216.9z M169.6,216.9"/>
	<path class="st0" d="M169.6,265.2h12.1c4.4,0,8-3.6,8-8v-12.1c0-4.4-3.6-8-8-8h-12.1c-4.4,0-8,3.6-8,8v12.1
		C161.6,261.6,165.2,265.2,169.6,265.2L169.6,265.2z M169.6,265.2"/>
	<path class="st0" d="M169.6,313.5h12.1c4.4,0,8-3.6,8-8v-12.1c0-4.4-3.6-8-8-8h-12.1c-4.4,0-8,3.6-8,8v12.1
		C161.6,309.9,165.2,313.5,169.6,313.5L169.6,313.5z M169.6,313.5"/>
	<path class="st0" d="M169.6,361.8h12.1c4.4,0,8-3.6,8-8v-12.1c0-4.4-3.6-8-8-8h-12.1c-4.4,0-8,3.6-8,8v12.1
		C161.6,358.2,165.2,361.8,169.6,361.8L169.6,361.8z M169.6,361.8"/>
	<path class="st0" d="M211.8,216.9h12.1c4.4,0,8-3.6,8-8v-12.1c0-4.4-3.6-8-8-8h-12.1c-4.4,0-8,3.6-8,8v12.1
		C203.8,213.3,207.4,216.9,211.8,216.9L211.8,216.9z M211.8,216.9"/>
	<path class="st0" d="M211.8,265.2h12.1c4.4,0,8-3.6,8-8v-12.1c0-4.4-3.6-8-8-8h-12.1c-4.4,0-8,3.6-8,8v12.1
		C203.8,261.6,207.4,265.2,211.8,265.2L211.8,265.2z M211.8,265.2"/>
	<path class="st0" d="M211.8,313.5h12.1c4.4,0,8-3.6,8-8v-12.1c0-4.4-3.6-8-8-8h-12.1c-4.4,0-8,3.6-8,8v12.1
		C203.8,309.9,207.4,313.5,211.8,313.5L211.8,313.5z M211.8,313.5"/>
	<path class="st0" d="M211.8,361.8h12.1c4.4,0,8-3.6,8-8v-12.1c0-4.4-3.6-8-8-8h-12.1c-4.4,0-8,3.6-8,8v12.1
		C203.8,358.2,207.4,361.8,211.8,361.8L211.8,361.8z M211.8,361.8"/>
	<path class="st0" d="M288.3,216.9h12.1c4.4,0,8-3.6,8-8v-12.1c0-4.4-3.6-8-8-8h-12.1c-4.4,0-8,3.6-8,8v12.1
		C280.2,213.3,283.8,216.9,288.3,216.9L288.3,216.9z M288.3,216.9"/>
	<path class="st0" d="M288.3,168.7h12.1c4.4,0,8-3.6,8-8v-12.1c0-4.4-3.6-8-8-8h-12.1c-4.4,0-8,3.6-8,8v12.1
		C280.2,165.1,283.8,168.7,288.3,168.7L288.3,168.7z M288.3,168.7"/>
	<path class="st0" d="M288.3,120.4h12.1c4.4,0,8-3.6,8-8v-12.1c0-4.4-3.6-8-8-8h-12.1c-4.4,0-8,3.6-8,8v12.1
		C280.2,116.8,283.8,120.4,288.3,120.4L288.3,120.4z M288.3,120.4"/>
	<path class="st0" d="M288.3,265.2h12.1c4.4,0,8-3.6,8-8v-12.1c0-4.4-3.6-8-8-8h-12.1c-4.4,0-8,3.6-8,8v12.1
		C280.2,261.6,283.8,265.2,288.3,265.2L288.3,265.2z M288.3,265.2"/>
	<path class="st0" d="M288.3,313.5h12.1c4.4,0,8-3.6,8-8v-12.1c0-4.4-3.6-8-8-8h-12.1c-4.4,0-8,3.6-8,8v12.1
		C280.2,309.9,283.8,313.5,288.3,313.5L288.3,313.5z M288.3,313.5"/>
	<path class="st0" d="M288.3,361.8h12.1c4.4,0,8-3.6,8-8v-12.1c0-4.4-3.6-8-8-8h-12.1c-4.4,0-8,3.6-8,8v12.1
		C280.2,358.2,283.8,361.8,288.3,361.8L288.3,361.8z M288.3,361.8"/>
	<path class="st0" d="M330.5,216.9h12.1c4.4,0,8-3.6,8-8v-12.1c0-4.4-3.6-8-8-8h-12.1c-4.4,0-8,3.6-8,8v12.1
		C322.5,213.3,326.1,216.9,330.5,216.9L330.5,216.9z M330.5,216.9"/>
	<path class="st0" d="M330.5,168.7h12.1c4.4,0,8-3.6,8-8v-12.1c0-4.4-3.6-8-8-8h-12.1c-4.4,0-8,3.6-8,8v12.1
		C322.5,165.1,326.1,168.7,330.5,168.7L330.5,168.7z M330.5,168.7"/>
	<path class="st0" d="M330.5,120.4h12.1c4.4,0,8-3.6,8-8v-12.1c0-4.4-3.6-8-8-8h-12.1c-4.4,0-8,3.6-8,8v12.1
		C322.5,116.8,326.1,120.4,330.5,120.4L330.5,120.4z M330.5,120.4"/>
	<path class="st0" d="M330.5,265.2h12.1c4.4,0,8-3.6,8-8v-12.1c0-4.4-3.6-8-8-8h-12.1c-4.4,0-8,3.6-8,8v12.1
		C322.5,261.6,326.1,265.2,330.5,265.2L330.5,265.2z M330.5,265.2"/>
	<path class="st0" d="M330.5,313.5h12.1c4.4,0,8-3.6,8-8v-12.1c0-4.4-3.6-8-8-8h-12.1c-4.4,0-8,3.6-8,8v12.1
		C322.5,309.9,326.1,313.5,330.5,313.5L330.5,313.5z M330.5,313.5"/>
	<path class="st0" d="M330.5,361.8h12.1c4.4,0,8-3.6,8-8v-12.1c0-4.4-3.6-8-8-8h-12.1c-4.4,0-8,3.6-8,8v12.1
		C322.5,358.2,326.1,361.8,330.5,361.8L330.5,361.8z M330.5,361.8"/>
	<path class="st0" d="M372.8,216.9h12.1c4.4,0,8-3.6,8-8v-12.1c0-4.4-3.6-8-8-8h-12.1c-4.4,0-8,3.6-8,8v12.1
		C364.7,213.3,368.3,216.9,372.8,216.9L372.8,216.9z M372.8,216.9"/>
	<path class="st0" d="M372.8,168.7h12.1c4.4,0,8-3.6,8-8v-12.1c0-4.4-3.6-8-8-8h-12.1c-4.4,0-8,3.6-8,8v12.1
		C364.7,165.1,368.3,168.7,372.8,168.7L372.8,168.7z M372.8,168.7"/>
	<path class="st0" d="M372.8,120.4h12.1c4.4,0,8-3.6,8-8v-12.1c0-4.4-3.6-8-8-8h-12.1c-4.4,0-8,3.6-8,8v12.1
		C364.7,116.8,368.3,120.4,372.8,120.4L372.8,120.4z M372.8,120.4"/>
	<path class="st0" d="M372.8,265.2h12.1c4.4,0,8-3.6,8-8v-12.1c0-4.4-3.6-8-8-8h-12.1c-4.4,0-8,3.6-8,8v12.1
		C364.7,261.6,368.3,265.2,372.8,265.2L372.8,265.2z M372.8,265.2"/>
	<path class="st0" d="M372.8,313.5h12.1c4.4,0,8-3.6,8-8v-12.1c0-4.4-3.6-8-8-8h-12.1c-4.4,0-8,3.6-8,8v12.1
		C364.7,309.9,368.3,313.5,372.8,313.5L372.8,313.5z M372.8,313.5"/>
	<path class="st0" d="M372.8,361.8h12.1c4.4,0,8-3.6,8-8v-12.1c0-4.4-3.6-8-8-8h-12.1c-4.4,0-8,3.6-8,8v12.1
		C364.7,358.2,368.3,361.8,372.8,361.8L372.8,361.8z M372.8,361.8"/>
	<path class="st0" d="M143.3,414.1c-4.4,0-8,3.6-8,8c0,4.4,3.6,8,8,8h0.2c4.4,0,8-3.6,8-8c0-4.4-3.6-8-8-8H143.3z M143.3,414.1"/>
	<path class="st0" d="M304.2,414.1c-4.4,0-8,3.6-8,8c0,4.4,3.6,8,8,8h0.2c4.4,0,8-3.6,8-8c0-4.4-3.6-8-8-8H304.2z M304.2,414.1"/>
	<path class="st0" d="M58.3,446.3h-0.2c-4.4,0-8,3.6-8,8c0,4.4,3.6,8,8,8h0.2c4.4,0,8-3.6,8-8C66.4,449.9,62.8,446.3,58.3,446.3
		L58.3,446.3z M58.3,446.3"/>
	<path class="st0" d="M454.1,446.3h-0.2c-4.4,0-8,3.6-8,8c0,4.4,3.6,8,8,8h0.2c4.4,0,8-3.6,8-8C462.1,449.9,458.5,446.3,454.1,446.3
		L454.1,446.3z M454.1,446.3"/>
	<path class="st0" d="M430.7,446.3h-5.7V58.4c0-4.4-3.6-8-8-8H256.1c-4.4,0-8,3.6-8,8v98.2H95.2c-4.4,0-8,3.6-8,8v281.6h-5.7
		c-4.4,0-8,3.6-8,8c0,4.4,3.6,8,8,8h349.3c4.4,0,8-3.6,8-8C438.8,449.9,435.2,446.3,430.7,446.3L430.7,446.3z M215.9,446.3h-32.2
		v-32.2h32.2V446.3z M248.1,446.3H232V406c0-4.4-3.6-8-8-8h-48.3c-4.4,0-8,3.6-8,8v40.2h-64.4v-16.1h16.9c4.4,0,8-3.6,8-8
		c0-4.4-3.6-8-8-8h-16.9V172.7h144.8V446.3z M376.8,446.3h-32.2v-32.2h32.2V446.3z M409,446.3h-16.1V406c0-4.4-3.6-8-8-8h-48.3
		c-4.4,0-8,3.6-8,8v40.2h-64.4v-16.1h16.9c4.4,0,8-3.6,8-8c0-4.4-3.6-8-8-8h-16.9V66.5H409V446.3z M409,446.3"/>
</g>
</svg>
