<?xml version="1.0" encoding="utf-8"?>
<!-- Generator: Adobe Illustrator 22.0.0, SVG Export Plug-In . SVG Version: 6.00 Build 0)  -->
<svg version="1.1" id="Capa_1" xmlns="http://www.w3.org/2000/svg" xmlns:xlink="http://www.w3.org/1999/xlink" x="0px" y="0px"
	 viewBox="0 0 512 512" style="enable-background:new 0 0 512 512;" xml:space="preserve">
<style type="text/css">
	.st0{fill:#34495E;}
</style>
<g>
	<g>
		<g>
			<path class="st0" d="M486.7,164.9c-28.4-17.1-74.4-33.6-132.1-14.9c-3.1,1-6.1,2.1-9.2,3.3c0.2-3.2,0.3-6.5,0.3-9.7
				c0-60.6-29.7-99.1-54.6-120.7c-20-17.4-50.2-17.4-70.1,0c-24.9,21.7-54.6,60.3-54.6,120.7c0,3.3,0.1,6.5,0.3,9.7
				c-3-1.2-6.1-2.3-9.2-3.3c-57.7-18.7-103.4-2.4-131.7,14.6C3,178.3-6.2,207.2,4.4,231.7c13,30.2,40.5,70.2,97.8,88.8
				c3.1,1,6.2,1.9,9.4,2.8c-2.1,2.5-4.1,5.2-6,7.8c-11.2,15.5-19.5,32-24.7,49.2c-1.6,5.3,1.4,10.9,6.7,12.5
				c5.3,1.6,10.9-1.4,12.5-6.7c4.5-15,11.8-29.6,21.7-43.2c3.9-5.4,8.2-10.5,12.6-15.2c6.5,0.8,12.7,1.1,18.8,1.1
				c47.9,0,82.7-22.3,99.4-35.8c7.5,20.2,18.1,63.6-5,110c-0.1,0.2-0.1,0.3-0.2,0.5c-0.1,0.1-0.1,0.2-0.2,0.3
				c-3.6,7.2-7.9,14.2-12.8,20.9c-31,42.7-71.6,54.7-100.3,57.4c-16.7,1.5-32.2-9.5-35.9-25.8l-0.1-0.5c-1.2-5.4-6.6-8.8-12-7.6
				c-5.4,1.2-8.8,6.6-7.6,12l0.2,0.7c6,25.9,30.6,43.6,57.2,41.2c32.8-3,79.2-16.8,114.6-65.5c1.9-2.7,3.8-5.4,5.5-8.1
				c1.8,2.7,3.6,5.4,5.5,8.1c35.5,48.6,82,62.4,114.7,65.4c1.6,0.2,3.3,0.2,4.9,0.2c24.7,0,46.7-17.1,52.3-41.4
				c7.4-32.1,8.8-80.7-26.8-129.8c-1.9-2.7-4-5.3-6-7.8c3.1-0.8,6.3-1.8,9.4-2.8c56.8-18.4,84.5-59,97.7-89.7
				C518.1,206.7,509,178.4,486.7,164.9z M216.9,292.5c-26.6,14.1-54.9,19.1-84,14.8c-0.1,0-0.3,0-0.4,0c-0.1,0-0.2-0.1-0.3-0.1
				c-7.9-1.2-15.9-3.1-23.8-5.7c-50.1-16.3-74.2-51.2-85.6-77.6c-6.6-15.4-0.9-33.5,13.4-42.1c24.7-14.9,64.7-29.1,115.2-12.7
				c6.3,2,12.4,4.5,18.2,7.2c11.2,56.9,49.3,88.6,69.5,101.7C233.7,282.3,226.2,287.5,216.9,292.5z M249.1,260.6
				c-17.9-11.9-52-40.8-60.6-92c0-0.1-0.1-0.3-0.1-0.4c0-0.1,0-0.3,0-0.4c-1.3-7.9-1.9-16.1-1.9-24.4c0-52.9,26-86.7,47.7-105.6
				c12.5-10.9,31.3-10.9,43.8,0c21.8,18.9,47.7,52.5,47.7,105.6c0,6.6-0.4,13.2-1.2,19.5C273.7,191.3,255.4,237.3,249.1,260.6z
				 M413.9,456.4c-3.8,16.2-19.2,27.3-35.9,25.7c-28.6-2.6-69.3-14.7-100.3-57.4c-3.9-5.4-7.4-11-10.5-16.6
				c24.5-52.7,12.2-100.7,3.6-123.3c21.4-0.9,65.7,2.4,102.7,38.3c0.3,0.3,0.6,0.7,0.9,1c5.7,5.6,11.1,11.9,16,18.7
				C421.6,385.8,420.4,428.3,413.9,456.4z M489.3,222.9c-11.6,27-35.9,62.5-85.5,78.6c-6.3,2-12.6,3.7-19,4.9
				c-42.5-39.5-92-42.7-116.1-41.5c1.8-6.6,4.8-15.2,9.4-24.7c13.2-27.1,33.2-47.7,59.3-61.4c0.1-0.1,0.2-0.1,0.3-0.2
				c0.1-0.1,0.3-0.1,0.4-0.2c7.1-3.7,14.7-6.8,22.6-9.4c50.5-16.4,90.7-2,115.5,13C490.2,190.4,495.8,207.9,489.3,222.9z"/>
		</g>
	</g>
	<g>
		<g>
			<path class="st0" d="M84.7,410.7c-5.5-0.1-10.1,4.3-10.2,9.8v1.1c-0.1,5.5,4.3,10.1,9.8,10.2c0.1,0,0.1,0,0.2,0
				c5.4,0,9.9-4.4,10-9.8v-1C94.6,415.4,90.2,410.8,84.7,410.7z"/>
		</g>
	</g>
	<g>
		<g>
			<path class="st0" d="M361.4,201.4c-2.5-4.9-8.6-6.8-13.5-4.3c0,0-0.1,0-0.1,0.1c-4.9,2.6-6.8,8.6-4.2,13.5
				c1.8,3.4,5.3,5.4,8.9,5.4c1.5,0,3.1-0.4,4.6-1.1c0,0,0.1,0,0.1-0.1C362,212.3,363.9,206.3,361.4,201.4z"/>
		</g>
	</g>
	<g>
		<g>
			<path class="st0" d="M456.5,195c-22.4-11.1-46.2-14.7-70.8-10.5c-5.4,0.9-9.1,6.1-8.2,11.5s6.1,9.1,11.5,8.2
				c20.3-3.4,40-0.5,58.5,8.7c1.4,0.7,2.9,1,4.4,1c3.7,0,7.2-2,9-5.6C463.5,203.5,461.4,197.4,456.5,195z"/>
		</g>
	</g>
</g>
</svg>
