<?xml version="1.0" encoding="utf-8"?>
<!-- Generator: Adobe Illustrator 22.0.0, SVG Export Plug-In . SVG Version: 6.00 Build 0)  -->
<svg version="1.1" id="Layer_1" xmlns="http://www.w3.org/2000/svg" xmlns:xlink="http://www.w3.org/1999/xlink" x="0px" y="0px"
	 viewBox="0 0 512 512" style="enable-background:new 0 0 512 512;" xml:space="preserve">
<style type="text/css">
	.st0{fill:#34495E;}
</style>
<g>
	<path class="st0" d="M169.8,296.9l-5.5-32.2l23.3-22.8c2-2,2.8-5,1.9-7.7c-0.9-2.8-3.2-4.7-6.1-5.1l-32.3-4.7l-14.4-29.3
		c-1.2-2.6-3.9-4.2-6.8-4.2c-2.9,0-5.5,1.7-6.8,4.2l-14.4,29.3l-32.3,4.7c-2.9,0.4-5.2,2.5-6.1,5.1c-0.9,2.8-0.1,5.7,1.9,7.7
		l23.3,22.8l-5.5,32.2c-0.4,2.8,0.7,5.7,3,7.4c1.3,1,2.9,1.5,4.5,1.5c1.2,0,2.5-0.3,3.6-0.9l28.8-15.2l28.8,15.2
		c2.6,1.3,5.6,1.1,7.9-0.6C169,302.6,170.3,299.7,169.8,296.9z M151,256.7c-1.8,1.8-2.6,4.2-2.1,6.7l3.6,21l-18.8-9.9
		c-2.2-1.1-4.8-1.1-7,0l-18.8,9.9l3.6-21c0.4-2.5-0.4-4.9-2.1-6.7l-15.2-14.9l21-3c2.5-0.3,4.6-1.9,5.7-4.1l9.4-19.1l9.4,19.1
		c1.1,2.2,3.2,3.8,5.7,4.1l21,3L151,256.7z"/>
	<path class="st0" d="M84.6,379.3l-4.6-26.9l19.5-19c1.7-1.7,2.4-4.2,1.5-6.5c-0.7-2.3-2.7-3.9-5.1-4.3L69,318.9l-12-24.5
		c-1.1-2.1-3.2-3.6-5.7-3.6s-4.6,1.3-5.7,3.6l-12,24.5l-27,3.9c-2.4,0.4-4.4,2-5.1,4.3c-0.7,2.3-0.1,4.8,1.5,6.5l19.5,19l-4.6,26.9
		c-0.4,2.4,0.6,4.8,2.5,6.2c1.1,0.8,2.4,1.2,3.7,1.2c1,0,2-0.2,3-0.7l24.1-12.7L75.4,386c2.1,1.1,4.8,1,6.7-0.5
		C84,384.2,84.9,381.7,84.6,379.3z M68.8,345.8c-1.5,1.4-2.1,3.6-1.8,5.6l3,17.5l-15.7-8.3c-1.8-1-4-1-5.8,0l-15.7,8.3l3-17.5
		c0.4-2-0.4-4.2-1.8-5.6l-12.7-12.4l17.6-2.5c2-0.4,3.8-1.5,4.8-3.4l7.8-15.9l7.8,15.9c1,1.9,2.7,3.2,4.8,3.4l17.6,2.5L68.8,345.8z"
		/>
	<path class="st0" d="M494.1,379.3l-4.6-26.8l19.5-19c1.7-1.7,2.4-4.2,1.5-6.5c-0.7-2.3-2.7-3.9-5.1-4.3l-26.9-3.9l-12-24.4
		c-1.1-2.1-3.2-3.6-5.7-3.6s-4.6,1.3-5.7,3.6l-11.9,24.6l-26.9,3.9c-2.4,0.4-4.4,2-5.1,4.3c-0.7,2.3-0.1,4.7,1.5,6.5l19.5,19
		l-4.6,26.8c-0.4,2.4,0.6,4.7,2.5,6.2c1.1,0.8,2.4,1.2,3.7,1.2c0.9,0,2-0.2,3-0.7l24.1-12.7l24.1,12.7c2.1,1.1,4.7,0.9,6.6-0.5
		C493.5,384.2,494.5,381.7,494.1,379.3z M478.3,345.9c-1.5,1.4-2.1,3.6-1.8,5.6l3,17.4l-15.7-8.3c-1.8-0.9-4-0.9-5.8,0l-15.7,8.3
		l3-17.4c0.4-2-0.4-4.2-1.8-5.6l-12.7-12.3l17.6-2.5c2-0.4,3.8-1.5,4.7-3.4l7.8-15.9l7.8,15.9c0.9,1.9,2.7,3.2,4.7,3.4l17.6,2.5
		L478.3,345.9z"/>
	<path class="st0" d="M440.8,234.3c-0.9-2.8-3.2-4.7-6.1-5.1l-32.3-4.7L388,195.2c-1.2-2.6-3.9-4.2-6.8-4.2c-2.9,0-5.5,1.7-6.8,4.2
		l-14.4,29.3l-32.3,4.7c-2.9,0.4-5.2,2.5-6.1,5.1c-0.9,2.8-0.1,5.7,1.9,7.7l23.3,22.8l-5.5,32.2c-0.4,2.8,0.7,5.7,3,7.4
		s5.5,1.9,7.9,0.6l28.8-15.2l28.8,15.2c1.1,0.6,2.3,0.9,3.6,0.9c1.6,0,3.1-0.4,4.5-1.5c2.3-1.7,3.5-4.6,3-7.4l-5.5-32.2l23.3-22.8
		C441,240,441.7,237,440.8,234.3z M402.1,256.7c-1.8,1.8-2.6,4.2-2.1,6.7l3.6,21l-18.8-9.9c-1.1-0.6-2.3-0.9-3.6-0.9
		s-2.5,0.3-3.6,0.9l-18.8,9.9l3.6-21c0.4-2.5-0.4-4.9-2.1-6.7l-15.2-14.9l21-3c2.5-0.3,4.6-1.9,5.7-4.1l9.4-19.1l9.4,19.1
		c1.1,2.2,3.2,3.8,5.7,4.1l21,3L402.1,256.7z"/>
	<path class="st0" d="M307,230l-8-46.3l33.7-32.8c1.9-1.9,2.6-4.7,1.8-7.2c-0.8-2.6-3-4.4-5.8-4.8l-46.4-6.7L261.5,90
		c-1.2-2.4-3.7-4-6.4-4s-5.1,1.6-6.4,4l-20.8,42.1l-46.4,6.7c-2.7,0.4-4.9,2.3-5.8,4.8c-0.8,2.6-0.1,5.3,1.8,7.2l33.7,32.8l-8,46.3
		c-0.4,2.6,0.6,5.3,2.8,6.9s5.1,1.8,7.4,0.5l41.6-21.9l41.6,21.9c1,0.5,2.2,0.8,3.4,0.8c1.5,0,2.9-0.4,4.2-1.4
		C306.4,235.4,307.4,232.7,307,230z M284.4,182.5l6.2,35.9l-32.3-17c-1-0.5-2.2-0.8-3.4-0.8c-1.2,0-2.3,0.3-3.4,0.8l-32.2,16.9
		l6.2-35.9c0.4-2.3-0.4-4.6-2-6.3l-26-25.4l36-5.2c2.3-0.3,4.3-1.8,5.3-3.9l16-32.6l16,32.6c1,2.1,3,3.6,5.3,3.9l36,5.2l-25.9,25.5
		C284.8,177.7,284,180.1,284.4,182.5z"/>
	<path class="st0" d="M278.7,405H132.9c-5.8,0-10.5,4.7-10.5,10.5c0,5.8,4.7,10.5,10.5,10.5h145.7c5.8,0,10.5-4.7,10.5-10.5
		C289.2,409.8,284.4,405,278.7,405z"/>
	<path class="st0" d="M378.3,405h-45.1c-5.8,0-10.5,4.7-10.5,10.5c0,5.8,4.7,10.5,10.5,10.5h45.1c5.8,0,10.5-4.7,10.5-10.5
		C388.8,409.8,384,405,378.3,405z"/>
</g>
</svg>
