<?xml version="1.0" encoding="utf-8"?>
<!-- Generator: Adobe Illustrator 22.0.0, SVG Export Plug-In . SVG Version: 6.00 Build 0)  -->
<svg version="1.1" id="Capa_1" xmlns="http://www.w3.org/2000/svg" xmlns:xlink="http://www.w3.org/1999/xlink" x="0px" y="0px"
	 viewBox="0 0 436.9 436.9" style="enable-background:new 0 0 436.9 436.9;" xml:space="preserve">
<style type="text/css">
	.st0{fill:#34495E;}
</style>
<g>
	<g>
		<g>
			<path class="st0" d="M308.2,235.6l-34.3-4c-3.6-0.5-7.1,2.3-7.6,6c-0.4,3.7,2.3,7.1,6,7.6l34.3,4c11.6,1.3,21,12,21,23.8v41
				H109.2v-41.1c0-11.6,9.6-22.4,21-23.8l34.4-4c3.7-0.4,6.4-3.8,6-7.6c-0.4-3.7-3.9-6.5-7.6-6l-34.4,4
				c-18.3,2.1-33.1,18.8-33.1,37.3v47.9c0,3.8,3.1,6.8,6.8,6.8h232.1c3.8,0,6.8-3.1,6.8-6.8v-47.9
				C341.3,254.4,326.5,237.7,308.2,235.6z"/>
		</g>
	</g>
	<g>
		<g>
			<path class="st0" d="M299.1,130.8c0.9-5.3,1.3-10.2,1.3-14.7c0-45.2-36.7-81.9-81.9-81.9s-81.9,36.8-81.9,81.9
				c0,4.6,0.4,9.4,1.3,14.7c-5.2,5.1-8.1,12.1-8.1,19.4c0,14.7,11.7,26.7,26.2,27.3c4.5,7.1,9.5,13.4,14.7,18.7v34.4
				c0,3.8,3.1,6.8,6.8,6.8s6.8-3.1,6.8-6.8v-37.3c0-1.9-0.8-3.7-2.1-5c-6.1-5.7-11.7-12.9-16.7-21.4c-1.4-2.3-4-3.6-6.7-3.3
				c0,0-0.6,0.1-0.7,0.1c-0.3,0-0.7,0.1-1.1,0.1c-7.5,0-13.7-6.1-13.7-13.7c0-4.4,2.2-8.6,5.8-11.2c2.2-1.6,3.3-4.3,2.8-6.9
				c-1.2-6-1.8-11.3-1.8-16.1c0-37.6,30.6-68.3,68.3-68.3s68.3,30.6,68.3,68.3c0,4.8-0.6,10-1.8,16.1c-0.5,2.6,0.6,5.4,2.8,6.9
				c3.7,2.6,5.8,6.7,5.8,11.2c0,7.5-6.1,13.7-13.7,13.7c-0.4,0-0.7-0.1-1.1-0.1l-0.7-0.1c-2.7-0.3-5.3,1-6.7,3.3
				c-5,8.5-10.7,15.7-16.7,21.4c-1.4,1.3-2.1,3.1-2.1,5v37.3c0,3.8,3.1,6.8,6.8,6.8c3.7,0,6.8-3.1,6.8-6.8v-34.4
				c5.3-5.3,10.2-11.6,14.7-18.7c14.6-0.6,26.2-12.6,26.2-27.3C307.2,142.9,304.2,135.9,299.1,130.8z"/>
		</g>
	</g>
	<g>
		<g>
			<path class="st0" d="M225.2,244.1c-0.3-2.8-2.4-5.2-5.2-5.8l-54.6-12.8c-2-0.5-4.2,0-5.8,1.3s-2.6,3.3-2.6,5.3v41
				c0,2.4,1.2,4.6,3.3,5.8c1.1,0.7,2.3,1,3.6,1c1.1,0,2.1-0.2,3.1-0.8l54.6-28.1C224.1,249.7,225.6,246.9,225.2,244.1z M170.7,261.9
				v-21.1l28.2,6.6L170.7,261.9z"/>
		</g>
	</g>
	<g>
		<g>
			<path class="st0" d="M277.3,226.8c-1.6-1.3-3.7-1.8-5.8-1.3l-54.6,12.6c-2.8,0.6-4.9,3-5.2,5.8c-0.4,2.8,1.1,5.6,3.6,6.9
				l54.6,28.3c1,0.5,2.1,0.8,3.1,0.8c1.2,0,2.5-0.3,3.5-1c2-1.2,3.3-3.5,3.3-5.8v-41C279.9,230,278.9,228.1,277.3,226.8z
				 M266.2,261.8L238,247.2l28.2-6.5V261.8z"/>
		</g>
	</g>
	<g>
		<g>
			<path class="st0" d="M430.1,314H6.8C3,314,0,317.1,0,320.8v75.1c0,3.8,3.1,6.8,6.8,6.8h423.3c3.8,0,6.8-3.1,6.8-6.8v-75.1
				C436.9,317.1,433.9,314,430.1,314z M423.3,389.1H13.7v-61.4h409.6L423.3,389.1L423.3,389.1z"/>
		</g>
	</g>
	<g>
		<g>
			<path class="st0" d="M41,238.9c-3.8,0-6.8,3.1-6.8,6.8V314c0,3.8,3.1,6.8,6.8,6.8s6.8-3.1,6.8-6.8v-68.3
				C47.8,242,44.7,238.9,41,238.9z"/>
		</g>
	</g>
	<g>
		<g>
			<path class="st0" d="M69.3,216c-2.5-2.8-6.8-3.1-9.6-0.6L12,257.1c-2.8,2.5-3.1,6.8-0.6,9.6c1.4,1.5,3.2,2.3,5.1,2.3
				c1.6,0,3.2-0.6,4.5-1.7l47.7-41.7C71.5,223.1,71.8,218.8,69.3,216z"/>
		</g>
	</g>
	<g>
		<g>
			<path class="st0" d="M78.5,170.7c-16.9,0-30.7,13.8-30.7,30.7s13.8,30.7,30.7,30.7s30.7-13.8,30.7-30.7S95.4,170.7,78.5,170.7z
				 M78.5,218.5c-9.4,0-17.1-7.7-17.1-17.1s7.7-17.1,17.1-17.1s17.1,7.7,17.1,17.1S87.9,218.5,78.5,218.5z"/>
		</g>
	</g>
	<g>
		<g>
			<path class="st0" d="M395.9,232.1c-3.8,0-6.8,3.1-6.8,6.8V314c0,3.8,3.1,6.8,6.8,6.8s6.8-3.1,6.8-6.8v-75.1
				C402.8,235.2,399.7,232.1,395.9,232.1z"/>
		</g>
	</g>
	<g>
		<g>
			<path class="st0" d="M430.5,257.1l-50.6-43.8c-2.8-2.5-7.2-2.2-9.6,0.7c-2.5,2.9-2.2,7.2,0.7,9.6l50.6,43.8
				c1.3,1.1,2.9,1.7,4.5,1.7c1.9,0,3.8-0.8,5.2-2.4C433.7,263.8,433.4,259.5,430.5,257.1z"/>
		</g>
	</g>
	<g>
		<g>
			<path class="st0" d="M358.4,170.7c-16.9,0-30.7,13.8-30.7,30.7s13.8,30.7,30.7,30.7s30.7-13.8,30.7-30.7S375.3,170.7,358.4,170.7
				z M358.4,218.5c-9.4,0-17.1-7.7-17.1-17.1s7.7-17.1,17.1-17.1s17.1,7.7,17.1,17.1S367.8,218.5,358.4,218.5z"/>
		</g>
	</g>
	<g>
		<g>
			<path class="st0" d="M95.6,334.5h-41c-3.8,0-6.8,3.1-6.8,6.8s3.1,6.8,6.8,6.8h41c3.8,0,6.8-3.1,6.8-6.8S99.3,334.5,95.6,334.5z"
				/>
		</g>
	</g>
	<g>
		<g>
			<path class="st0" d="M252.6,361.8h-81.9c-3.8,0-6.8,3.1-6.8,6.8c0,3.8,3.1,6.8,6.8,6.8h81.9c3.8,0,6.8-3.1,6.8-6.8
				S256.4,361.8,252.6,361.8z"/>
		</g>
	</g>
	<g>
		<g>
			<path class="st0" d="M300.4,348.2h-27.3c-3.8,0-6.8,3.1-6.8,6.8s3.1,6.8,6.8,6.8h27.3c3.8,0,6.8-3.1,6.8-6.8
				S304.1,348.2,300.4,348.2z"/>
		</g>
	</g>
	<g>
		<g>
			<path class="st0" d="M355,348.2h-27.3c-3.8,0-6.8,3.1-6.8,6.8s3.1,6.8,6.8,6.8H355c3.8,0,6.8-3.1,6.8-6.8S358.8,348.2,355,348.2z
				"/>
		</g>
	</g>
</g>
</svg>
