<?xml version="1.0" encoding="utf-8"?>
<!-- Generator: Adobe Illustrator 22.0.0, SVG Export Plug-In . SVG Version: 6.00 Build 0)  -->
<svg version="1.1" id="Capa_1" xmlns="http://www.w3.org/2000/svg" xmlns:xlink="http://www.w3.org/1999/xlink" x="0px" y="0px"
	 viewBox="0 0 512 512" style="enable-background:new 0 0 512 512;" xml:space="preserve">
<style type="text/css">
	.st0{fill:#34495E;}
</style>
<g>
	<g>
		<g>
			<path class="st0" d="M239.4,333.9c-1.9-1.9-4.4-2.9-7.1-2.9c-2.6,0-5.2,1.1-7.1,2.9s-2.9,4.4-2.9,7.1s1.1,5.2,2.9,7.1
				c1.9,1.9,4.4,2.9,7.1,2.9s5.2-1.1,7.1-2.9c1.9-1.9,2.9-4.4,2.9-7.1S241.3,335.8,239.4,333.9z"/>
		</g>
	</g>
	<g>
		<g>
			<path class="st0" d="M512,181.4V168c0-5.5-4.5-10-10-10h-25.3v-2c0-5.5-4.5-10-10-10H313.2c-1.4,0-2.8,0.3-4,0.8l-0.9-0.7
				c-7.8-6.8-17.8-10.6-28.3-10.6h-48.8c-10.4,0-20.4,3.8-28.2,10.5l-38,29.8c-20,15.7-25.3,43.9-12.3,65.8c0.9,1.5,1.9,3,3,4.4H133
				l27.8-140.1c0.6-2.9-0.2-6-2.1-8.3S154,94,151,94H10c-3,0-5.8,1.3-7.7,3.7c-1.9,2.3-2.7,5.4-2.1,8.3L28,246H10
				c-3.6,0-7,2-8.8,5.2s-1.6,7.1,0.3,10.2l51.4,81L0.5,498.8c-1,3.1-0.5,6.4,1.4,9S6.8,512,10,512h40c4.3,0,8.1-2.7,9.5-6.8
				l7.5-22.3h25.6c4.3,0,8.1-2.7,9.5-6.8L144,351h45.9c5.5,0,10-4.5,10-10s-4.5-10-10-10H69.5l-41.3-65h455.6l-12.9,20.3h-65.7
				c-5.5,0-10,4.5-10,10s4.5,10,10,10h53L442.5,331H272c-5.5,0-10,4.5-10,10s4.5,10,10,10h95.7l41.9,125.1c1.4,4.1,5.2,6.8,9.5,6.8
				h26l7.5,22.3c1.4,4.1,5.2,6.8,9.5,6.8h40c3.2,0,6.2-1.5,8.1-4.2c1.9-2.6,2.4-6,1.4-9L459,342.3l51.4-81c2-3.1,2.1-7,0.3-10.2
				c-1.8-3.2-5.1-5.2-8.8-5.2h-46.5c4-4.7,7.6-9.8,10.5-15.2C491.7,229,512,207.5,512,181.4z M476.7,189.2V178H492v3.5
				c0,12-7.2,22.3-17.5,26.9C476,202.2,476.7,195.8,476.7,189.2z M122.9,351L85.4,462.9H73.7L111.2,351H122.9z M71.2,351h18.9
				L42.8,492H23.9L71.2,351z M112.7,246H48.3l-15.4-77.7H128L112.7,246z M29,148.3L22.2,114h116.7l-6.8,34.3H29z M200.2,246h-7.9
				c-9-1.2-17.3-6.3-22.3-14.7c-7.9-13.2-4.7-30.3,7.4-39.8l10.9-8.5c0.1,0.5,0.1,1.1,0.2,1.6l6.1,44c0.9,6.3,3.1,12.1,6.4,17.2
				C200.6,245.9,200.4,246,200.2,246z M303,181.9l-6.1,44c-1.6,11.4-11.5,20.1-23,20.1h-36.7c-11.5,0-21.4-8.6-23-20.1l-6.1-44
				c-0.9-6.6,1.1-13.4,5.5-18.4s10.8-8,17.5-8H280c5.5,0,10.7,1.9,14.8,5.4c0.3,0.2,0.5,0.5,0.8,0.7l0,0c0.6,0.6,1.3,1.2,1.9,1.9
				C301.9,168.6,303.9,175.3,303,181.9z M426.3,462.9L388.8,351h12.1l37.5,111.9H426.3z M488.1,492h-18.9l-47.3-141h18.9L488.1,492z
				 M341.3,231.3c-5,8.3-13.3,13.5-22.3,14.7h-8c-0.2,0-0.4-0.1-0.7-0.1c3.3-5.1,5.5-10.9,6.4-17.2l6.1-44c0.1-0.5,0.1-1.1,0.2-1.6
				l10.9,8.5C346,201,349.2,218.1,341.3,231.3z M456.7,189.2c0,23.1-12.1,44.6-31.6,56.8h-69.6c1.1-1.4,2.1-2.9,3-4.4
				c13-21.8,7.8-50.1-12.3-65.8l-12.6-9.8h123v23.2H456.7z"/>
		</g>
	</g>
	<g>
		<g>
			<path class="st0" d="M407.2,42.8l-4.9-4.9c-5.7-5.7-5.7-15.1,0-20.8c3.9-3.9,3.9-10.2,0-14.1s-10.2-3.9-14.1,0
				c-13.5,13.5-13.5,35.5,0,49.1l4.9,4.9c5.7,5.7,5.7,15.1,0,20.8c-3.9,3.9-3.9,10.2,0,14.1c2,1.9,4.5,2.9,7.1,2.9s5.1-1,7.1-2.9
				C420.7,78.3,420.7,56.3,407.2,42.8z"/>
		</g>
	</g>
	<g>
		<g>
			<path class="st0" d="M361.5,76l-4.9-4.9c-5.7-5.7-5.7-15.1,0-20.8c3.9-3.9,3.9-10.2,0-14.1s-10.2-3.9-14.1,0
				c-13.5,13.5-13.5,35.5,0,49.1l4.9,4.9c5.7,5.7,5.7,15.1,0,20.8c-3.9,3.9-3.9,10.2,0,14.1c2,1.9,4.5,2.9,7.1,2.9s5.1-1,7.1-2.9
				C375,111.5,375,89.5,361.5,76z"/>
		</g>
	</g>
	<g>
		<g>
			<path class="st0" d="M378.3,289.2c-1.9-1.9-4.4-2.9-7.1-2.9s-5.2,1.1-7.1,2.9s-2.9,4.4-2.9,7.1c0,2.6,1.1,5.2,2.9,7.1
				c1.9,1.9,4.4,2.9,7.1,2.9s5.2-1.1,7.1-2.9c1.9-1.9,2.9-4.4,2.9-7.1C381.2,293.6,380.1,291,378.3,289.2z"/>
		</g>
	</g>
</g>
</svg>
