<?xml version="1.0" encoding="utf-8"?>
<!-- Generator: Adobe Illustrator 22.0.0, SVG Export Plug-In . SVG Version: 6.00 Build 0)  -->
<svg version="1.1" id="Capa_1" xmlns="http://www.w3.org/2000/svg" xmlns:xlink="http://www.w3.org/1999/xlink" x="0px" y="0px"
	 viewBox="0 0 512 512" style="enable-background:new 0 0 512 512;" xml:space="preserve">
<style type="text/css">
	.st0{fill:#34495E;}
</style>
<g>
	<g>
		<path class="st0" d="M494.1,218.4c-4.3-12.2-18-46.2-46.5-80.5c-20.5-24.7-44.4-44.4-71-58.6c-21.5-11.5-44.9-19.2-69.8-23.3
			c-2.1-21.4-20.1-38.1-42-38.1c-21.9,0-39.9,16.7-42,38.1c-23,3.8-44.6,10.7-64.8,20.7c-26,13-49.6,31.2-70,54.2
			c-6.4,7.2,4.8,17.2,11.2,10c35.7-40.2,80-64,131.9-71c0,0,0.1,0,0.1,0c46.7-6.4,96.2,0.3,138.1,22.5
			c24.9,13.2,47.2,31.6,66.4,54.7c23.3,28,36.4,56.3,42.1,70.7h-426c4.6-11.5,13.8-31.9,29.2-53.8c5.5-7.9-6.7-16.6-12.3-8.6
			c-19.6,27.9-29.6,53.1-33.2,63.1c-10.2,2.5-17.9,11.8-17.9,22.8c0,13,10.5,23.5,23.5,23.5h113.3L88.8,349H7.5
			c-4.1,0-7.5,3.4-7.5,7.5c0,0,0,129.6,0,130.1c0,2.2,1,4.2,2.5,5.6c1.3,1.2,3.1,1.9,5,1.9c0.3,0,0.6,0,0.9-0.1l85-10.1
			c3.8-0.4,6.6-3.6,6.6-7.4v-27.9l178.1-44c5.5-1,10.5-3.6,14.4-7.5c0.1-0.1,0.2-0.2,0.3-0.3l90.8-100.2c8.6-8.7,10.3-21.7,5-32
			h99.9c13,0,23.5-10.5,23.5-23.5C512,230.2,504.4,220.9,494.1,218.4z M288.9,53.7c-10.3-0.9-20.7-1.3-31-1
			c-5.4,0.1-10.8,0.5-16.3,0.9c-1.1,0.1-2.2,0.2-3.3,0.3c2.8-12,13.6-21,26.5-21s23.7,9,26.5,21C290.5,53.8,289.7,53.7,288.9,53.7z
			 M85,469.9l-70,8.3V364h70V469.9z M372.9,286.2c-0.1,0.1-0.2,0.2-0.3,0.3l-90.8,100.1c-1.8,1.8-4.1,2.9-6.6,3.3
			c-0.2,0-0.3,0.1-0.5,0.1L100,433.3v-74.2c0,0,70.6-90.9,70.7-91c4.1-5.3,13.3-4,17.5,0.2c4.4,4.3,5,11.1,1.5,16.1
			c-0.7,1-39.2,60.2-39.3,60.3c-3.2,4.9,0.5,11.6,6.3,11.6h106.6c2,0,3.9-0.8,5.3-2.2c0,0,86.4-85.7,86.5-85.8
			c4.9-4.8,13-4.8,17.8,0.1C377.9,273.4,377.8,281.3,372.9,286.2z M203.9,264.7h43.6l-76.7,76.1c0,0,30.5-46.7,31.2-47.7
			C208,284.5,208.5,273.6,203.9,264.7z M215.3,341.3h-23.7l73.5-73c2.4-2.4,5.5-3.7,8.9-3.7c4.8,0,9.3,2.8,11.3,7.1L215.3,341.3z
			 M310.1,268.4c2.4-2.4,5.5-3.7,8.9-3.7c4.8,0,9.3,2.8,11.3,7.1l-70.1,69.5h-23.7L310.1,268.4z M488.5,249.7H41.1
			c-4.7,0-8.5-3.8-8.5-8.5s3.8-8.5,8.5-8.5h447.4c4.7,0,8.5,3.8,8.5,8.5S493.2,249.7,488.5,249.7z"/>
	</g>
</g>
</svg>
