<?xml version="1.0" encoding="utf-8"?>
<!-- Generator: Adobe Illustrator 22.0.0, SVG Export Plug-In . SVG Version: 6.00 Build 0)  -->
<svg version="1.1" id="Capa_1" xmlns="http://www.w3.org/2000/svg" xmlns:xlink="http://www.w3.org/1999/xlink" x="0px" y="0px"
	 viewBox="0 0 512 512" style="enable-background:new 0 0 512 512;" xml:space="preserve">
<style type="text/css">
	.st0{fill:#34495E;}
</style>
<g>
	<g>
		<g>
			<path class="st0" d="M133,83c-5.5,0-10,4.5-10,10s4.5,10,10,10c5.5,0,10-4.5,10-10S138.5,83,133,83z"/>
		</g>
	</g>
	<g>
		<g>
			<path class="st0" d="M256,43c-32.1,0-66,7.4-93.1,20.3c-5,2.4-7.1,8.3-4.7,13.3c2.4,5,8.3,7.1,13.3,4.7C196,69.7,226.8,63,256,63
				c104.6,0,193,88.4,193,193s-88.4,193-193,193S63,360.6,63,256c0-47.8,17.5-94.9,48.1-129.2c3.7-4.1,3.3-10.4-0.8-14.1
				c-4.1-3.7-10.4-3.3-14.1,0.8C62.4,151.4,43,203.4,43,256c0,115.7,97.1,213,213,213c115.7,0,213-97.1,213-213
				C469,140.3,371.9,43,256,43z"/>
		</g>
	</g>
	<g>
		<g>
			<path class="st0" d="M376,206h-70v-70c0-5.5-4.5-10-10-10h-80c-5.5,0-10,4.5-10,10v70h-70c-5.5,0-10,4.5-10,10v80
				c0,5.5,4.5,10,10,10h70v70c0,5.5,4.5,10,10,10h80c5.5,0,10-4.5,10-10v-70h70c5.5,0,10-4.5,10-10v-80C386,210.5,381.5,206,376,206
				z M366,286h-70c-5.5,0-10,4.5-10,10v70h-60v-70c0-5.5-4.5-10-10-10h-70v-60h70c5.5,0,10-4.5,10-10v-70h60v70c0,5.5,4.5,10,10,10
				h70V286z"/>
		</g>
	</g>
</g>
</svg>
