<?xml version="1.0" encoding="utf-8"?>
<!-- Generator: Adobe Illustrator 22.0.0, SVG Export Plug-In . SVG Version: 6.00 Build 0)  -->
<svg version="1.1" id="Capa_1" xmlns="http://www.w3.org/2000/svg" xmlns:xlink="http://www.w3.org/1999/xlink" x="0px" y="0px"
	 viewBox="0 0 512 512" style="enable-background:new 0 0 512 512;" xml:space="preserve">
<style type="text/css">
	.st0{fill:#34495E;}
</style>
<g>
	<g>
		<g>
			<path class="st0" d="M502.2,301.9l-86.3-76.1v-57.9c0-4.2-3.4-7.6-7.6-7.6h-43.5c-4.2,0-7.6,3.4-7.6,7.6v6.2l-52.9-46.6v-44
				c0-23.6-5.6-45.1-16.5-63.7C281.2,8.4,269.3,1.5,256,1.5l0,0c-13.3,0-25.2,6.8-31.9,18.3c-10.9,18.6-16.5,40.1-16.5,63.7v44
				l-52.9,46.7V168c0-4.2-3.4-7.6-7.6-7.6h-43.5c-4.2,0-7.6,3.4-7.6,7.6v57.9l-86.2,76c-12.4,11-11.6,26.1-5.4,36.3
				c4.7,7.6,13.2,13.7,23.7,13.7c3.5,0,7.3-0.7,11.1-2.3l37-15c3.9-1.6,5.8-6,4.2-9.9c-1.6-3.9-6-5.8-9.9-4.2l-37,15
				c-7.6,3.1-13.5-0.9-16.2-5.3s-3.7-11.4,2.5-16.9l187.8-165.6v117.5L101,308.3c-3.9,1.6-5.8,6-4.2,9.9c1.6,3.9,6,5.8,9.9,4.2
				l101-40.8v84.2c0,10.2,1.1,20.3,3.1,30.2l-51.1,51c-5.2,5.2-6.4,12.9-3,19.5c2.9,5.6,8.5,9,14.6,9c1,0,2.1-0.1,3.1-0.3l66.4-12.1
				c2,2.5,4.7,4.5,7.6,5.7v33.9c0,4.1,3.2,7.8,7.3,7.9c4.3,0.1,7.8-3.3,7.8-7.6v-34.3c2.9-1.2,5.5-3.2,7.5-5.6l66.4,12.2
				c1,0.2,2.1,0.3,3.1,0.3c6.1,0,11.7-3.3,14.6-9c3.4-6.6,2.3-14.2-3-19.5l-51-51c2.1-9.9,3.2-20.1,3.2-30.3v-39.2
				c0-4.2-3.4-7.6-7.6-7.6s-7.6,3.4-7.6,7.6v39.2c0,22.6-5.9,45-16.9,64.7l-8.7,15.6v-43.8c0-4.1-3.2-7.8-7.3-7.9
				c-4.3-0.1-7.8,3.3-7.8,7.6v44.3l-8.8-15.8c-11-19.7-16.9-42-16.9-64.7V83.5c0-20.9,4.8-39.8,14.4-56.1c4-6.7,11-10.8,18.8-10.8
				l0,0c7.8,0,14.9,4,18.8,10.8c9.6,16.3,14.4,35.2,14.4,56.1v207.6c0,4.2,3.4,7.6,7.6,7.6s7.6-3.4,7.6-7.6v-9.6l168.4,68
				c3.9,1.6,7.6,2.3,11.1,2.3c10.4,0,19-6.1,23.7-13.7C513.8,328,514.6,312.9,502.2,301.9z M139.6,187.5l-28.3,25v-37h28.3V187.5z
				 M285.5,437.8c4.5-8,8.2-16.4,11.1-25l44.9,44.9c0.2,0.2,0.8,0.8,0.2,1.7c-0.5,1-1.3,0.8-1.6,0.8l-61-11.2L285.5,437.8z
				 M226.4,437.8l6.3,11.3l-61,11.1c-0.3,0-1.1,0.2-1.6-0.8s0-1.5,0.2-1.7l44.9-44.9C218.3,421.4,222,429.8,226.4,437.8z
				 M372.4,175.5h28.3v37l-28.3-25V175.5z M494.7,330.2c-2.7,4.4-8.6,8.4-16.2,5.3l-174.1-70.3V147.7l187.8,165.6
				C498.4,318.8,497.4,325.8,494.7,330.2z"/>
		</g>
	</g>
	<g>
		<g>
			<path class="st0" d="M278.5,56.8c-12.4-12.4-32.6-12.4-45,0c-3,3-3,7.8,0,10.7c3,3,7.8,3,10.7,0c6.5-6.5,17.1-6.5,23.5,0
				c1.5,1.5,3.4,2.2,5.4,2.2c1.9,0,3.9-0.7,5.4-2.2C281.5,64.5,281.5,59.7,278.5,56.8z"/>
		</g>
	</g>
</g>
</svg>
