<?xml version="1.0" encoding="utf-8"?>
<!-- Generator: Adobe Illustrator 22.0.0, SVG Export Plug-In . SVG Version: 6.00 Build 0)  -->
<svg version="1.1" id="Capa_1" xmlns="http://www.w3.org/2000/svg" xmlns:xlink="http://www.w3.org/1999/xlink" x="0px" y="0px"
	 viewBox="0 0 512 512" style="enable-background:new 0 0 512 512;" xml:space="preserve">
<style type="text/css">
	.st0{fill:#34495E;}
</style>
<g>
	<g>
		<path class="st0" d="M444.9,204H175.4c-1.1-13-6-23.3-14.1-31.4c-15.2-15.2-36.8-15.2-37.9-15.2H52.5c-1.1,0-20.6,0.5-35.2,13
			v-51.4c0-4.9-3.8-8.7-8.7-8.7S0,114.2,0,119.1v93.6v103.9v76.3c0.5,4.9,4.3,8.7,8.7,8.7c4.9,0,8.7-3.8,8.7-8.7v-68.2h477.4v67.7
			c0,4.9,3.8,8.7,8.7,8.7c4.9,0,8.7-3.8,8.7-8.7v-75.8v-45.5C512,234.4,482.2,204,444.9,204z M52.5,174.3h70.9
			c3.2,0,30.8,1.1,34.6,29.8H17.9C21.6,175.4,49.3,174.3,52.5,174.3z M494.7,308H17.3v-9.7h477.4L494.7,308L494.7,308z M494.7,280.9
			H17.3v-60.1h427.6c27.6,0,49.8,22.7,49.8,49.8L494.7,280.9L494.7,280.9z"/>
	</g>
</g>
</svg>
