<?xml version="1.0" encoding="utf-8"?>
<!-- Generator: Adobe Illustrator 22.0.0, SVG Export Plug-In . SVG Version: 6.00 Build 0)  -->
<svg version="1.1" id="Capa_1" xmlns="http://www.w3.org/2000/svg" xmlns:xlink="http://www.w3.org/1999/xlink" x="0px" y="0px"
	 viewBox="0 0 512 512" style="enable-background:new 0 0 512 512;" xml:space="preserve">
<style type="text/css">
	.st0{fill:#34495E;}
</style>
<g>
	<g>
		<rect x="223" y="462.5" class="st0" width="66.1" height="16.5"/>
	</g>
</g>
<g>
	<g>
		<path class="st0" d="M453.5,330.4c5.8-10,8.9-21.5,8.9-33.1c0-36.4-29.6-66.1-66.1-66.1s-66.1,29.6-66.1,66.1s29.6,66.1,66.1,66.1
			c17.6,0,34.2-6.9,46.7-19.3l-11.7-11.7c-9.4,9.4-21.8,14.5-35,14.5c-27.3,0-49.5-22.2-49.5-49.5s22.2-49.5,49.5-49.5
			s49.5,22.2,49.5,49.5c0,8.7-2.3,17.3-6.7,24.8L453.5,330.4z"/>
	</g>
</g>
<g>
	<g>
		<path class="st0" d="M512,319.7v-44.8l-21.2-7.3c-1.7-5.5-4-10.9-6.6-16l9.8-20.1l-31.7-31.7l-20.2,9.8c-5.1-2.7-10.5-4.9-16-6.6
			l-7.4-21.2h-14.1V0H107.4v82.6H0v214.7h107.4V512h297.3v-99.1h14.1l7.4-21.2c5.5-1.8,10.9-4,16-6.6l20.2,9.8l31.7-31.7l-9.8-20.1
			c2.7-5.1,4.9-10.5,6.6-16L512,319.7z M123.9,49.5v-33h264.3v33H123.9z M16.5,280.8V99.1h231.2v181.7H16.5z M388.1,445.9v49.5
			H123.9v-49.5H388.1z M388.1,429.4H123.9V297.3h140.4V82.6H123.9V66.1h264.3v115.6H374l-7.4,21.2c-5.5,1.8-10.9,4-16,6.6l-20.2-9.8
			l-31.7,31.7l9.8,20.1c-2.7,5.1-4.9,10.5-6.6,16l-21.2,7.4v44.8l21.2,7.3c1.7,5.5,4,10.9,6.6,16l-9.8,20.1l31.7,31.7l20.2-9.8
			c5.1,2.7,10.5,4.9,16,6.6l7.4,21.2h14.1V429.4z M477.2,314.3l-1.1,4.2c-1.9,7.1-4.7,13.9-8.3,20.2l-2.2,3.8l8.4,17.4l-15,15
			l-17.4-8.4l-3.8,2.2c-6.3,3.6-13.1,6.4-20.2,8.3l-4.2,1.1l-6.4,18.2h-21.3l-6.3-18.2l-4.2-1.1c-7.1-1.9-13.9-4.7-20.2-8.3
			l-3.8-2.2l-17.4,8.4l-15-15l8.4-17.4l-2.2-3.8c-3.6-6.3-6.4-13.1-8.3-20.2l-1.1-4.2l-18.3-6.3v-21.3l18.3-6.3l1.1-4.2
			c1.9-7.1,4.7-13.9,8.3-20.2l2.2-3.8l-8.4-17.4l15-15l17.4,8.4l3.8-2.2c6.3-3.6,13.1-6.4,20.2-8.3l4.2-1.1l6.4-18.2H407l6.3,18.2
			l4.2,1.1c7.1,1.9,13.9,4.7,20.2,8.3l3.8,2.2l17.4-8.4l15,15l-8.4,17.4l2.2,3.8c3.6,6.3,6.4,13.1,8.3,20.2l1.1,4.2l18.3,6.3V308
			L477.2,314.3z"/>
	</g>
</g>
<g>
	<g>
		<path class="st0" d="M396.4,264.3c-18.2,0-33,14.8-33,33s14.8,33,33,33v-16.5c-9.1,0-16.5-7.4-16.5-16.5s7.4-16.5,16.5-16.5
			s16.5,7.4,16.5,16.5h16.5C429.4,279.1,414.6,264.3,396.4,264.3z"/>
	</g>
</g>
<g>
	<g>
		<path class="st0" d="M99.1,181.7h16.5c0-9.1,7.4-16.5,16.5-16.5v-16.5C113.9,148.6,99.1,163.5,99.1,181.7z"/>
	</g>
</g>
<g>
	<g>
		<path class="st0" d="M196.7,167.5c-6.6-29.9-33.5-51.9-64.5-51.9c-30.8,0-57.5,21.7-64.4,51.9C47.3,173.9,33,192.9,33,214.7
			c0,27.3,22.2,49.5,49.5,49.5h99.1c27.3,0,49.5-22.2,49.5-49.5C231.2,192.6,216.7,173.8,196.7,167.5z M181.7,247.7H82.6
			c-18.2,0-33-14.8-33-33c0-15.8,11.3-29.4,26.8-32.4l5.9-1.9l0.8-5.8c3.5-24.2,24.5-42.5,49-42.5c21.2,0,39.9,13.7,46.7,33.1
			c-9.8,0.5-19.1,3.9-26.9,9.8l9.9,13.2c5.7-4.3,12.6-6.6,19.8-6.6c18.2,0,33,14.8,33,33S199.9,247.7,181.7,247.7z"/>
	</g>
</g>
</svg>
