<?xml version="1.0" encoding="utf-8"?>
<!-- Generator: Adobe Illustrator 22.0.0, SVG Export Plug-In . SVG Version: 6.00 Build 0)  -->
<svg version="1.1" id="Layer_1" xmlns="http://www.w3.org/2000/svg" xmlns:xlink="http://www.w3.org/1999/xlink" x="0px" y="0px"
	 viewBox="0 0 512 512" style="enable-background:new 0 0 512 512;" xml:space="preserve">
<style type="text/css">
	.st0{fill:#34495E;}
</style>
<g>
	<g>
		<path class="st0" d="M289.5,95.8c-24.5-24.5-57.1-38-91.7-38c-34.6,0-67.2,13.5-91.7,38c-50.6,50.6-50.6,132.8,0,183.4
			c24.5,24.5,57.1,38,91.7,38c34.6,0,67.2-13.5,91.7-38c24.5-24.5,38-57.1,38-91.7S314,120.3,289.5,95.8z M116.6,106.2
			c21.7-21.7,50.6-33.7,81.3-33.7s59.6,12,81.3,33.7c17.1,17.1,28.2,38.7,32.1,62.2l-40.3,39.4c-3.8-2.2-8.2-3.4-12.9-3.4
			c-9.1,0-17.2,4.7-21.9,11.7L177,197.5c0-0.2,0-0.3,0-0.5c0-14.5-11.8-26.3-26.3-26.3c-14.5,0-26.3,11.8-26.3,26.3
			c0,4.7,1.3,9.2,3.5,13l-31,32.2C73.2,198.7,79.8,143,116.6,106.2z M269.6,230.7c0,6.4-5.2,11.6-11.5,11.6
			c-6.4,0-11.6-5.2-11.6-11.6s5.2-11.6,11.6-11.6C264.4,219.1,269.6,224.3,269.6,230.7z M162.2,197c0,6.4-5.2,11.6-11.6,11.6
			c-6.4,0-11.6-5.2-11.6-11.6s5.2-11.6,11.6-11.6C157,185.5,162.2,190.6,162.2,197z M279.1,268.8c-21.7,21.7-50.6,33.7-81.3,33.7
			s-59.6-12-81.3-33.7c-4.3-4.3-8.2-8.9-11.7-13.7l33.6-34.8c3.7,1.9,7.8,3,12.2,3c9.1,0,17.2-4.7,21.9-11.7l59.2,18.6
			c0,0.2,0,0.3,0,0.5c0,14.5,11.8,26.3,26.3,26.3c14.5,0,26.3-11.8,26.3-26.3c0-4.5-1.1-8.7-3.1-12.4l31.5-30.8
			C312.7,218.2,300.8,247.1,279.1,268.8z"/>
	</g>
</g>
<g>
	<g>
		<path class="st0" d="M132.4,112.2l9.7,11.1c22.9-19.9,55-26,83.8-16l4.9-13.9C197,81.6,159.3,88.8,132.4,112.2z"/>
	</g>
</g>
<g>
	<g>
		<path class="st0" d="M249.7,102.3l-7.7,12.6c3.9,2.4,7.7,5.1,11.2,8.1l9.6-11.2C258.7,108.3,254.3,105.1,249.7,102.3z"/>
	</g>
</g>
<g>
	<g>
		<path class="st0" d="M215.5,270.6c-16.6,3.5-33.7,2-49.4-4.3l-5.5,13.7c11.9,4.8,24.5,7.2,37.1,7.2c6.9,0,13.9-0.7,20.8-2.2
			L215.5,270.6z"/>
	</g>
</g>
<g>
	<g>
		<path class="st0" d="M382.8,306.2l-10.7,10.7l-26.6-28.4c31.5-46,39.1-103.6,22.7-155.2l21.1-20.6c3.7,2,8,3.1,12.5,3.1
			c14.5,0,26.3-11.8,26.3-26.3c0-4.3-1-8.4-2.9-11.9l45.3-44.3v22.9h14.8V8.2h-47.8V23h22.3l-44.7,43.7c-3.9-2.3-8.5-3.6-13.3-3.6
			c-14.5,0-26.3,11.8-26.3,26.3c0,4.6,1.2,9,3.3,12.8L362.7,118c-8.7-20.7-21.5-40.2-38.3-57c-69.7-69.7-183.2-69.7-253,0
			C9.2,123.1,2.4,220,51,289.7l-12.4,12.9c-3.7-1.9-7.8-3-12.2-3C11.8,299.6,0,311.4,0,325.9s11.8,26.3,26.3,26.3
			s26.3-11.8,26.3-26.3c0-4.7-1.3-9.2-3.5-13L60,301.6c3.5,4.3,7.3,8.4,11.3,12.4c34.9,34.9,80.7,52.3,126.5,52.3
			c35.2,0,70.3-10.3,100.5-30.8L325,364l-11.1,11.1l129.2,128.7l68.9-68.9L382.8,306.2z M401.8,77.9c6.4,0,11.5,5.2,11.5,11.6
			s-5.2,11.6-11.5,11.6c-6.4,0-11.5-5.2-11.5-11.6S395.4,77.9,401.8,77.9z M26.3,337.4c-6.4,0-11.6-5.2-11.6-11.5
			c0-6.4,5.2-11.5,11.6-11.5c6.4,0,11.5,5.2,11.5,11.5C37.9,332.3,32.7,337.4,26.3,337.4z M81.8,303.5c-64-64-64-168.1,0-232.1
			c32-32,74-48,116-48s84.1,16,116,48c64,64,64,168.1,0,232.1C249.9,367.5,145.8,367.5,81.8,303.5z M310.3,326.6
			c4.8-3.9,9.5-8.1,14-12.6c4.3-4.3,8.4-8.9,12.2-13.5l25.1,26.9l-26.2,26.2L310.3,326.6z M443.1,482.9L334.8,375l48-48l108.2,107.9
			L443.1,482.9z"/>
	</g>
</g>
<g>
	<g>
		<polygon class="st0" points="382.8,348.5 361.7,369.6 372.2,380.1 382.8,369.4 423.6,410.1 434.1,399.7 		"/>
	</g>
</g>
<g>
	<g>
		
			<rect x="439.6" y="415.3" transform="matrix(0.7071 -0.7071 0.7071 0.7071 -168.2071 439.9556)" class="st0" width="14.8" height="15.5"/>
	</g>
</g>
</svg>
