<?xml version="1.0" encoding="utf-8"?>
<!-- Generator: Adobe Illustrator 22.0.0, SVG Export Plug-In . SVG Version: 6.00 Build 0)  -->
<svg version="1.1" id="Capa_1" xmlns="http://www.w3.org/2000/svg" xmlns:xlink="http://www.w3.org/1999/xlink" x="0px" y="0px"
	 viewBox="0 0 512 512" style="enable-background:new 0 0 512 512;" xml:space="preserve">
<style type="text/css">
	.st0{fill:#34495E;}
</style>
<g>
	<g>
		<path class="st0" d="M356.5,358.9c-1.9-1.9-4.4-2.9-7.1-2.9c-2.6,0-5.2,1.1-7.1,2.9c-1.9,1.9-2.9,4.4-2.9,7.1s1.1,5.2,2.9,7.1
			c1.9,1.9,4.4,2.9,7.1,2.9c2.6,0,5.2-1.1,7.1-2.9c1.9-1.9,2.9-4.5,2.9-7.1C359.5,363.3,358.4,360.8,356.5,358.9z"/>
	</g>
</g>
<g>
	<g>
		<path class="st0" d="M465.1,391.9c-1.9-1.9-4.4-2.9-7.1-2.9s-5.2,1.1-7.1,2.9c-1.9,1.9-2.9,4.4-2.9,7.1s1.1,5.2,2.9,7.1
			c1.9,1.9,4.4,2.9,7.1,2.9s5.2-1.1,7.1-2.9c1.9-1.9,2.9-4.4,2.9-7.1S466.9,393.8,465.1,391.9z"/>
	</g>
</g>
<g>
	<g>
		<path class="st0" d="M91.6,198.9v-4.2c0-0.1,0-0.1,0-0.2H92c5.5,0,10-4.5,10-10s-4.5-10-10-10H71.1c-5.5,0-10,4.5-10,10
			s4.5,10,10,10h0.4c0,0.1,0,0.1,0,0.2v4.2c-27.2,4.8-48,28.5-48,57.1c0,5.5,4.5,10,10,10s10-4.5,10-10c0-21,17-38,38-38
			s38,17,38,38c0,5.5,4.5,10,10,10s10-4.5,10-10C139.6,227.4,118.8,203.6,91.6,198.9z"/>
	</g>
</g>
<g>
	<g>
		<path class="st0" d="M512,266h-52v-77.7c0-20.2-13.6-37.9-33.2-43.1l-37.2-9.8v-23.1c0-0.6-0.1-1.1-0.1-1.6c5.3-7.7,8.4-17,8.4-27
			V58.5v-7.6V0h-95.8v50.9v7.6v25.1c0,10,3.1,19.3,8.4,27c-0.1,0.5-0.1,1.1-0.1,1.6v23.1l-37.2,9.8c-19.5,5.2-33.2,22.9-33.2,43.1
			V266H129.6h-96H0v68h44v178h424v-79.6c0-0.1,0-0.2-0.1-0.3c-8.8-9.9-19.9-3.8-19.9,4.9V492H64V376h252.8c0.1,0,0.2,0,0.3-0.1
			c9.9-8.8,3.8-19.9-4.9-19.9H64v-22h384v27.7c0,0.1,0,0.2,0.1,0.3c8.8,9.9,19.9,3.8,19.9-4.9v-23h44V266z M421.7,164.5
			c10.8,2.8,18.3,12.6,18.3,23.8V266h-20v-68.7c0-0.1,0-0.2-0.1-0.3c-8.8-9.9-19.9-3.8-19.9,4.9v64h-40V163.2l21.2-9.4L421.7,164.5z
			 M360,141.3v-11c3.4-0.7,6.6-1.8,9.6-3.2v9.9L360,141.3z M322.1,20h55.8v28.5h-55.8V20z M322.1,68.5h55.8v15.1
			c0,15.3-12.5,27.8-27.9,27.8s-27.9-12.5-27.9-27.8V68.5z M340,130.4v11l-9.6-4.3v-9.9C333.4,128.6,336.6,129.7,340,130.4z
			 M260,188.3c0-11.1,7.5-20.9,18.3-23.8l40.5-10.7l21.2,9.4V266h-38v-68.7c0-0.1,0-0.2-0.1-0.3c-8.8-9.9-19.9-3.8-19.9,4.9v64h-22
			V188.3z M492,314H20v-28h472V314z"/>
	</g>
</g>
<g>
	<g>
		<path class="st0" d="M391.1,187.6c-1.9-1.9-4.4-2.9-7.1-2.9c-2.6,0-5.2,1.1-7.1,2.9c-1.9,1.9-2.9,4.4-2.9,7.1
			c0,2.6,1.1,5.2,2.9,7.1s4.4,2.9,7.1,2.9s5.2-1.1,7.1-2.9c1.9-1.9,2.9-4.4,2.9-7.1C394,192,392.9,189.5,391.1,187.6z"/>
	</g>
</g>
</svg>
