<?xml version="1.0" encoding="utf-8"?>
<!-- Generator: Adobe Illustrator 22.0.0, SVG Export Plug-In . SVG Version: 6.00 Build 0)  -->
<svg version="1.1" id="Capa_1" xmlns="http://www.w3.org/2000/svg" xmlns:xlink="http://www.w3.org/1999/xlink" x="0px" y="0px"
	 viewBox="0 0 480 480" style="enable-background:new 0 0 480 480;" xml:space="preserve">
<style type="text/css">
	.st0{fill:#34495E;}
</style>
<g>
	<g>
		<path class="st0" d="M472,336c0.1-61.8-50-111.9-111.8-112c-0.1,0-0.1,0-0.2,0c-5.4,0-10.7,0.5-16,1.3V32H240V0H112v32H8v448h336
			v-33.3c47.8,7.3,94.8-17.2,116.1-60.6C467.9,370.5,472,353.4,472,336L472,336z M448.2,298c0.3,0.6,0.5,1.2,0.8,1.8l-85,26.6
			L322,247.8C370.7,226.9,427.2,249.3,448.2,298z M128,16h96v48h-96V16z M328,464H24V48h88v32h128V48h88v180.9
			c-7.2,2.1-14.1,4.8-20.7,8.3c-54.6,29.1-75.2,96.9-46.1,151.5c14.1,26.4,38.2,46.1,66.8,54.6V464z M360,432L360,432
			c-53,0-96-43-96-96c0-32.6,16.5-62.9,43.9-80.6l45,84.4l0.1,0.1c0.1,0.2,0.3,0.4,0.5,0.6c0.3,0.4,0.6,0.8,0.9,1.2l0.1,0.1
			c0.2,0.1,0.4,0.3,0.6,0.4c0.4,0.3,0.8,0.6,1.2,0.8c0.1,0,0.1,0.1,0.2,0.2l85.5,42.7C424.6,414.6,393.5,432.1,360,432z
			 M449.1,371.6l-67.8-33.9l10.9-3.4l61.5-19.2c1.5,6.9,2.3,13.9,2.3,20.9C456,348.2,453.7,360.3,449.1,371.6z"/>
	</g>
</g>
<g>
	<g>
		<path class="st0" d="M154.5,120.7c-21.6-27.9-61.7-32.9-89.6-11.3c-4.9,3.8-9.3,8.3-12.9,13.4l6.5,4.7l-6.5-4.7
			c-20.6,28.7-14,68.7,14.8,89.2c10.9,7.8,23.9,12,37.3,12c35.3,0,64-28.7,64-64C168,145.8,163.3,131.9,154.5,120.7z M112,112.7
			c9.1,1.5,17.6,5.7,24.4,12l-12.9,10c-3.4-2.7-7.3-4.6-11.4-5.7C112,129.1,112,112.7,112,112.7z M103.8,144c5,0,9.7,2.3,12.7,6.2
			c2.2,2.8,3.4,6.2,3.4,9.8c0,8.8-7.2,16-16,16s-16-7.2-16-16C88,151.2,95.1,144,103.8,144z M96,112.8v16.3
			c-4.6,1.2-8.9,3.4-12.5,6.5l-13.3-9.5C77.3,119.1,86.3,114.5,96,112.8z M95.7,207c-22.9-4-39.6-23.8-39.7-47
			c0-7.3,1.7-14.4,4.9-21l13.3,9.5c-1.4,3.6-2.2,7.5-2.2,11.4c0,17.6,14.3,32,31.9,32c14.6,0,27.3-9.8,31-24h16.4
			C146.7,194.1,121.8,211.6,95.7,207z M134.9,152c-0.4-1.6-0.9-3.1-1.6-4.6l13-10.1c2.5,4.6,4.2,9.6,5.1,14.7H134.9z"/>
	</g>
</g>
<g>
	<g>
		<rect x="200" y="104" class="st0" width="104" height="16"/>
	</g>
</g>
<g>
	<g>
		<rect x="200" y="136" class="st0" width="104" height="16"/>
	</g>
</g>
<g>
	<g>
		<rect x="200" y="168" class="st0" width="104" height="16"/>
	</g>
</g>
<g>
	<g>
		<rect x="200" y="200" class="st0" width="56" height="16"/>
	</g>
</g>
<g>
	<g>
		<path class="st0" d="M72,392H48c-4.4,0-8,3.6-8,8v40c0,4.4,3.6,8,8,8h24c4.4,0,8-3.6,8-8v-40C80,395.6,76.4,392,72,392z M64,432
			h-8v-24h8V432z"/>
	</g>
</g>
<g>
	<g>
		<path class="st0" d="M120,360H96c-4.4,0-8,3.6-8,8v72c0,4.4,3.6,8,8,8h24c4.4,0,8-3.6,8-8v-72C128,363.6,124.4,360,120,360z
			 M112,432h-8v-56h8V432z"/>
	</g>
</g>
<g>
	<g>
		<path class="st0" d="M168,320h-24c-4.4,0-8,3.6-8,8v112c0,4.4,3.6,8,8,8h24c4.4,0,8-3.6,8-8V328C176,323.6,172.4,320,168,320z
			 M160,432h-8v-96h8V432z"/>
	</g>
</g>
<g>
	<g>
		<path class="st0" d="M216,280h-24c-4.4,0-8,3.6-8,8v152c0,4.4,3.6,8,8,8h24c4.4,0,8-3.6,8-8V288C224,283.6,220.4,280,216,280z
			 M208,432h-8V296h8V432z"/>
	</g>
</g>
<g>
	<g>
		<rect x="40" y="240" class="st0" width="64" height="16"/>
	</g>
</g>
<g>
	<g>
		<rect x="40" y="264" class="st0" width="64" height="16"/>
	</g>
</g>
<g>
	<g>
		<rect x="40" y="288" class="st0" width="32" height="16"/>
	</g>
</g>
</svg>
