<?xml version="1.0" encoding="utf-8"?>
<!-- Generator: Adobe Illustrator 22.0.0, SVG Export Plug-In . SVG Version: 6.00 Build 0)  -->
<svg version="1.1" id="Capa_1" xmlns="http://www.w3.org/2000/svg" xmlns:xlink="http://www.w3.org/1999/xlink" x="0px" y="0px"
	 viewBox="0 0 480 480" style="enable-background:new 0 0 480 480;" xml:space="preserve">
<style type="text/css">
	.st0{fill:#34495E;}
</style>
<g>
	<g>
		<path class="st0" d="M372.3,271.6c-44.4-28.9-103.9-16.3-132.8,28.1c-10.1,15.6-15.5,33.8-15.5,52.4c0,18.6,5.4,36.8,15.5,52.4
			l13.4-8.7c-24.1-37-13.6-86.6,23.4-110.7s86.6-13.6,110.7,23.4s13.6,86.6-23.4,110.7c-26.5,17.3-60.7,17.3-87.3,0l-8.7,13.4
			c44.4,28.9,103.9,16.3,132.8-28.1C429.3,359.9,416.7,300.5,372.3,271.6z"/>
	</g>
</g>
<g>
	<g>
		<path class="st0" d="M358.3,326.3l-54.3,54.3l-18.3-18.3l-11.3,11.3l24,24c1.5,1.5,3.5,2.3,5.7,2.3s4.2-0.8,5.7-2.3l60-60
			L358.3,326.3z"/>
	</g>
</g>
<g>
	<g>
		<rect x="71.9" y="272" class="st0" width="120" height="16"/>
	</g>
</g>
<g>
	<g>
		<rect x="119.9" y="240" class="st0" width="88" height="16"/>
	</g>
</g>
<g>
	<g>
		<rect x="71.9" y="200" class="st0" width="168" height="16"/>
	</g>
</g>
<g>
	<g>
		<rect x="119.9" y="168" class="st0" width="192" height="16"/>
	</g>
</g>
<g>
	<g>
		<rect x="71.9" y="344" class="st0" width="104" height="16"/>
	</g>
</g>
<g>
	<g>
		<rect x="119.9" y="312" class="st0" width="56" height="16"/>
	</g>
</g>
<g>
	<g>
		<rect x="71.9" y="416" class="st0" width="120" height="16"/>
	</g>
</g>
<g>
	<g>
		<rect x="119.9" y="384" class="st0" width="56" height="16"/>
	</g>
</g>
<g>
	<g>
		<path class="st0" d="M222.9,98.4c-1.8-5.9-6-10.8-11.6-13.6l-15.6-7.8c-3.4-1.7-4.7-5.8-3.1-9.2c1.2-2.3,3.5-3.8,6.1-3.8h2.3
			c3.8,0,6.8,3.1,6.8,6.8V72h16v-1.2c0-9.9-6.5-18.7-16-21.7V40h-16v9.2c-12,3.7-18.7,16.5-15,28.5c1.8,5.9,6,10.8,11.6,13.6
			l15.6,7.8c3.4,1.7,4.7,5.8,3.1,9.2c-1.2,2.3-3.5,3.8-6.1,3.8h-2.3c-3.8,0-6.8-3.1-6.8-6.8V104h-16v1.2c0,9.9,6.5,18.7,16,21.7v9.2
			h16v-9.2C219.9,123.1,226.6,110.4,222.9,98.4z"/>
	</g>
</g>
<g>
	<g>
		<path class="st0" d="M364.4,232.1c-4.1-1.5-8.3-2.8-12.5-3.9V72h40c4.4,0,8-3.6,8-8V32c0-17.7-14.3-32-32-32h-304
			c-17.7,0-32,14.3-32,32v432c0,4.4,3.6,8,8,8h235.9c66.2,24.5,139.8-9.4,164.3-75.6C464.5,330.1,430.7,256.6,364.4,232.1z
			 M351.9,32c0-8.8,7.2-16,16-16s16,7.2,16,16v24h-32V32z M47.9,456V32c0-8.8,7.2-16,16-16h276.4c-2.9,4.8-4.4,10.4-4.4,16v193.1
			c-70-8.9-134,40.6-143,110.6c-6,46.7,14.3,93,52.6,120.3H47.9z M319.9,464c-61.9,0-112-50.1-112-112s50.1-112,112-112
			c61.8,0.1,111.9,50.2,112,112C431.9,413.9,381.8,464,319.9,464z"/>
	</g>
</g>
<g>
	<g>
		<rect x="87.9" y="168" class="st0" width="16" height="16"/>
	</g>
</g>
<g>
	<g>
		<rect x="87.9" y="240" class="st0" width="16" height="16"/>
	</g>
</g>
<g>
	<g>
		<rect x="87.9" y="312" class="st0" width="16" height="16"/>
	</g>
</g>
<g>
	<g>
		<rect x="87.9" y="384" class="st0" width="16" height="16"/>
	</g>
</g>
</svg>
