<?xml version="1.0" encoding="utf-8"?>
<!-- Generator: Adobe Illustrator 22.0.0, SVG Export Plug-In . SVG Version: 6.00 Build 0)  -->
<svg version="1.1" id="Layer_1" xmlns="http://www.w3.org/2000/svg" xmlns:xlink="http://www.w3.org/1999/xlink" x="0px" y="0px"
	 viewBox="0 0 496 496" style="enable-background:new 0 0 496 496;" xml:space="preserve">
<style type="text/css">
	.st0{fill:#34495E;}
</style>
<g>
	<g>
		<g>
			<path class="st0" d="M464,112.8V76.7L387.3,0H160v112H0v336h136v32h-32v16h288v-16h-32v-32h136V152c0-10.1,0-39.2,0-39.2
				S487.6,112.8,464,112.8z M384,19.3L444.7,80H384V19.3z M176,16h192v80h80v256H176V16z M344,480H152v-32h192V480z M480,400v32H16
				v-32H480z M480,384H16V128h144v240h304V129.5c11.3,0,16,0,16,0s0,18.5,0,22.5V384z"/>
			<path class="st0" d="M144,200c0-30.9-25.1-56-56-56s-56,25.1-56,56s25.1,56,56,56S144,230.9,144,200z M96,184c0,4.4-3.6,8-8,8
				s-8-3.6-8-8s3.6-8,8-8S96,179.6,96,184z M88,240c-5.6,0-10.9-1.2-15.7-3.2c1.5-7.3,8-12.8,15.7-12.8s14.2,5.5,15.7,12.8
				C98.9,238.8,93.6,240,88,240z M88,208c-13.1,0-24.3,7.9-29.2,19.1C52.1,220,48,210.5,48,200c0-20.4,15.4-37.1,35.2-39.5
				C72.2,162.7,64,172.4,64,184C64,197.2,74.8,208,88,208s24-10.8,24-24c0-11.6-8.2-21.3-19.2-23.5c19.8,2.4,35.2,19.1,35.2,39.5
				c0,10.5-4.1,20-10.8,27.1C112.3,215.9,101.1,208,88,208z"/>
			<path class="st0" d="M32,312c0,30.9,25.1,56,56,56s56-25.1,56-56s-25.1-56-56-56S32,281.1,32,312z M88,352
				c-5.6,0-10.9-1.2-15.7-3.2c1.5-7.3,8-12.8,15.7-12.8s14.2,5.5,15.7,12.8C98.9,350.8,93.6,352,88,352z M96,296c0,4.4-3.6,8-8,8
				s-8-3.6-8-8s3.6-8,8-8S96,291.6,96,296z M83.2,272.5C72.2,274.7,64,284.4,64,296c0,13.2,10.8,24,24,24s24-10.8,24-24
				c0-11.6-8.2-21.3-19.2-23.5c19.8,2.4,35.2,19.1,35.2,39.5c0,10.5-4.1,20-10.8,27.1c-5-11.2-16.2-19.1-29.2-19.1
				s-24.3,7.9-29.2,19.1C52.1,332,48,322.5,48,312C48,291.6,63.4,274.9,83.2,272.5z"/>
			<path class="st0" d="M288,63.3V48h-80v80h80V83l28.6-20.5l-9.3-13L288,63.3z M272,74.7l-15.1,10.8l-11.2-11.2l-11.3,11.3
				l20.8,20.8l16.9-12V112h-48V64h48V74.7z"/>
			<path class="st0" d="M288,159.3V144h-80v80h80v-45l28.6-20.5l-9.3-13L288,159.3z M272,170.7l-15.1,10.8l-11.2-11.2l-11.3,11.3
				l20.8,20.8l16.9-12V208h-48v-48h48V170.7z"/>
			<path class="st0" d="M288,255.3V240h-80v80h80v-45l28.6-20.5l-9.3-13L288,255.3z M272,266.7l-15.1,10.8l-11.2-11.2l-11.3,11.3
				l20.8,20.8l16.9-12V304h-48v-48h48V266.7z"/>
			<rect x="320" y="112" class="st0" width="96" height="16"/>
			<rect x="320" y="208" class="st0" width="96" height="16"/>
			<rect x="320" y="304" class="st0" width="96" height="16"/>
			<rect x="320" y="272" class="st0" width="96" height="16"/>
			<rect x="320" y="176" class="st0" width="96" height="16"/>
			<rect x="320" y="80" class="st0" width="32" height="16"/>
		</g>
	</g>
</g>
</svg>
