<?xml version="1.0" encoding="utf-8"?>
<!-- Generator: Adobe Illustrator 22.0.0, SVG Export Plug-In . SVG Version: 6.00 Build 0)  -->
<svg version="1.1" id="Layer_1" xmlns="http://www.w3.org/2000/svg" xmlns:xlink="http://www.w3.org/1999/xlink" x="0px" y="0px"
	 viewBox="0 0 512 512" style="enable-background:new 0 0 512 512;" xml:space="preserve">
<style type="text/css">
	.st0{fill:#34495E;}
	.st1{enable-background:new    ;}
</style>
<g>
	<path class="st0" d="M116.9,231.6c4.1,14,11.6,26.9,22.2,37.5l31.2,31.2c7.6,7.6,17.6,11.7,28.3,11.7h37.5
		c10.7,0,20.7-4.2,28.3-11.7l31.2-31.2c10.6-10.6,18.2-23.5,22.2-37.5c19.9-2.3,35.5-19,35.5-39.6c0-13.1-6.4-24.7-16.2-32h0.2v-48
		c0-20-14.8-36.7-34-39.6C291.3,38.9,259,16,223.1,16h-5.7c-66.2,0-120,53.8-120,120v24h0.2c-9.8,7.3-16.2,18.9-16.2,32
		C81.4,212.5,97,229.3,116.9,231.6z M305.4,206.9c0,19.2-7.5,37.3-21.1,50.9L253.1,289c-4.5,4.5-10.6,7-17,7h-37.5
		c-6.3,0-12.5-2.6-17-7l-31.2-31.2c-13.6-13.6-21.1-31.7-21.1-50.9V168h31.4c35.2,0,68.5-12.5,94.8-35.4l2.4,4.1
		c10.2,17,27.9,28.3,47.3,30.8L305.4,206.9L305.4,206.9z M337.4,192c0,10.6-6.9,19.4-16.4,22.6c0.2-2.6,0.4-5.2,0.4-7.8v-37.4
		C330.7,172.8,337.4,181.6,337.4,192z M113.4,136c0-57.3,46.7-104,104-104h5.8c30.7,0,58.1,20.6,66.6,50.2l1.6,5.8h6
		c13.2,0,24,10.8,24,24v40.8c-2.6-0.5-5.3-0.8-8-0.8c-16.9,0-32.9-9-41.6-23.6L259,107.1l-7.2,7.2c-24.3,24.3-56.6,37.7-90.9,37.7
		h-39.5c-2.7,0-5.4,0.3-8,0.8V136z M113.4,169.5v37.4c0,2.6,0.2,5.2,0.4,7.8c-9.5-3.2-16.4-12.1-16.4-22.6
		C97.4,181.6,104.1,172.8,113.4,169.5z"/>
	<path class="st0" d="M402.9,408c-0.6,0-1.2,0-1.8,0c0,0.3,0.1,0.5,0.2,0.8l14.5,87.2h-55.2l-7.3-72.8l-15.9,1.6l7.1,71.2h-88.2
		l-14.6-102.1l9.5-14.3l18,21.6l17.7-70.9l26.6,8.8c-1.5-5.8-2.5-11.7-2.9-17.9l-21.2-7.1V304h-16v15l-11.9,47.8L229.1,328h-23.5
		l-32.3,38.8L161.4,319v-15h-16v10.2l-68.8,22.9c-31,10.3-53.6,36.8-59,69L0,512h434.9l-17.6-105.1C412.6,407.6,407.8,408,402.9,408
		z M178.5,496H90.2l7.1-71.2l-15.9-1.6L74.2,496H18.9l14.5-87.2c4.4-26.4,22.9-48,48.3-56.5l66.1-22l17.7,70.9l18-21.6l9.5,14.3
		L178.5,496z M240.2,496h-45.6l15.1-105.9l-15.6-23.4l19-22.8h8.5l19,22.8L225,390.1L240.2,496z"/>
	<path class="st0" d="M407.5,415C350.4,415,304,368.6,304,311.5S350.4,208,407.5,208S511,254.4,511,311.5S464.6,415,407.5,415z
		 M407.5,222.6c-49,0-88.9,39.9-88.9,88.9s39.9,88.9,88.9,88.9s88.9-39.9,88.9-88.9S456.5,222.6,407.5,222.6z"/>
	<g class="st1">
		<path class="st0" d="M407.7,279.3c-3.7,0-6.7-1.1-9-3.3c-2.3-2.2-3.5-4.8-3.5-8c0-3.3,1.2-5.9,3.5-8c2.3-2.1,5.3-3.1,9-3.1
			c3.7,0,6.7,1,9,3.1c2.3,2.1,3.5,4.7,3.5,8c0,3.3-1.2,6-3.5,8.1C414.4,278.2,411.4,279.3,407.7,279.3z M417.1,372.9h-19.2v-81.8
			h19.2V372.9z"/>
	</g>
</g>
</svg>
