<?xml version="1.0" encoding="utf-8"?>
<!-- Generator: Adobe Illustrator 22.0.0, SVG Export Plug-In . SVG Version: 6.00 Build 0)  -->
<svg version="1.1" id="Layer_1" xmlns="http://www.w3.org/2000/svg" xmlns:xlink="http://www.w3.org/1999/xlink" x="0px" y="0px"
	 viewBox="0 0 512 512" style="enable-background:new 0 0 512 512;" xml:space="preserve">
<style type="text/css">
	.st0{fill:#34495E;}
</style>
<g>
	<g>
		<g>
			<path class="st0" d="M503,3.4c-1.4-2.1-3.7-3.4-6.3-3.4h-44.3c-3,0-5.7,1.8-6.9,4.5L419,66l-1.7-0.2c-2.9-0.3-5.8,1.2-7.2,3.8
				l-16.5,29c0,0,0,0.1-0.1,0.1l-33.9,59.7c-17.2-6.6-68.5-25.5-124-40.7c-4-1.1-8.1,1.3-9.2,5.3c-1.1,4,1.3,8.1,5.3,9.2
				c67,18.3,127.9,42.3,128.5,42.6c3.5,1.4,7.4,0,9.3-3.3l34.7-61.3c11.2,1.1,27.9,2.5,49.9,4.3l-40.4,100.8
				c-26.6,66.4-87.4,111.6-158.5,117.9c-13.6,1.2-26.5,2.1-38.4,2.8c10.3-17.2,15.6-36.7,15.6-57.2c0-2.4-0.1-4.7-0.2-7l27.2,6.8
				c0.6,0.2,1.2,0.2,1.8,0.2c3.4,0,6.4-2.3,7.3-5.7c1-4-1.4-8.1-5.4-9.1l-33-8.3c-1.8-8.7-4.7-17.1-8.4-25l77.7,20.6
				c0.6,0.2,1.3,0.3,1.9,0.3c3.3,0,6.4-2.2,7.2-5.6c1.1-4-1.3-8.1-5.3-9.2l-92.6-24.6c-9.7-13.1-22.1-24.1-36.5-32L333,220.3
				c0.6,0.2,1.2,0.2,1.8,0.2c3.4,0,6.4-2.3,7.3-5.7c1-4-1.4-8.1-5.4-9.1l-235.3-59.1c-4-1-8.1,1.4-9.1,5.4s1.4,8.1,5.4,9.1l21.2,5.3
				c-24.7,0.3-47.5,8.5-66,22.3c-3.6-25.2-4.1-64,24.4-73.5c23.4-7.8,66.6-4.6,124.9,9.3c4,1,8.1-1.5,9-5.6c1-4-1.5-8.1-5.6-9
				c-61.8-14.6-106.6-17.6-133-8.8c-31.1,10.4-43,46.5-32.9,99.4C20,220.8,7.8,248.4,7.8,278.9c0,25.7,8.5,49.9,24.5,70
				c13.4,16.8,31.5,29.5,51.6,36.3c0.6,0.8,1.3,1.4,2.1,2c0.2,0.1,14.7,10,22.2,40.3c-27,3.4-49.6,7.8-65.8,12.9
				c-14,4.4-32.6,11.8-32.6,25.5c0,9.6,7.6,23.6,73.1,34.7C126.4,508,184.2,512,245.6,512s119.2-4.1,162.7-11.4
				c65.5-11.1,73.1-25.1,73.1-34.7c0-9.5-7.5-23.5-72.3-34.6c-4.1-0.7-8,2-8.7,6.1s2,8,6.1,8.7c51.4,8.8,59,18.4,59.8,19.8
				c-0.8,1.4-8.8,11.6-64.4,20.6c-42.3,6.8-97.8,10.6-156.3,10.6c-58.6,0-114.1-3.8-156.3-10.6c-56-9-63.7-19.3-64.4-20.6
				c1.6-3.8,20.5-15.4,86.2-23.6c1,7.5,1.6,16,1.6,25.5c0,4.1,3.4,7.5,7.5,7.5s7.5-3.4,7.5-7.5c0-9.8,0.6-19,1.9-27.6
				c35-3.5,74.9-5.4,116-5.4c44.4,0,87.4,2.2,124.4,6.3c0.3,0,0.6,0,0.8,0c3.8,0,7-2.8,7.4-6.7c0.5-4.1-2.5-7.8-6.6-8.3
				c-37.5-4.2-81.1-6.4-126-6.4c-39.7,0-78.5,1.7-112.8,5c1.3-4.8,2.8-9.3,4.6-13.5c7.5-17.8,16.9-24.1,16.9-24.1
				c0.8-0.5,1.5-1.2,2.1-2c19-6.5,36.2-18.2,49.4-33.6c15.3-0.6,32.3-1.8,50.8-3.4c37.5-3.3,73.3-17,103.5-39.5s53.6-52.8,67.6-87.8
				l55.9-139.3c0.9-2.2,0.7-4.7-0.6-6.7c-1.2-2-3.4-3.3-5.7-3.6h-0.1l26.5-60.9C504.6,8.2,504.4,5.5,503,3.4z M123.5,405.4
				c-1.2,2.9-2.4,6-3.4,9.2c-3.8-11.5-8.5-20.1-12.8-26.3h25.6C129.8,392.7,126.5,398.3,123.5,405.4z M197,338.7
				c-0.5,0.5-1,1-1.3,1.7c-12.9,15.8-30.8,27.6-51.8,32.9H96.4c-43.4-10.8-73.6-49.5-73.6-94.4c0-53.7,43.7-97.3,97.3-97.3
				c48.3,0,88.5,35.4,96.1,81.6l0,0c0.8,5.1,1.3,10.4,1.3,15.7C217.5,301.3,209.9,322.1,197,338.7z M460,99.9c-20-1.6-35.9-3-47.6-4
				l8.3-14.7l2.2,0.2h0.1l42.3,3.9c0,0,0,0,0.1,0h0.5L460,99.9z M461.4,69.9l-26.7-2.4L457.3,15h28L461.4,69.9z"/>
		</g>
	</g>
	<g>
		<g>
			<path class="st0" d="M56.1,223.2c-10.5,0-19,8.5-19,19c0,4.1,3.4,7.5,7.5,7.5s7.5-3.4,7.5-7.5c0-2.2,1.8-4,4-4s4,1.8,4,4
				c0,4.1,3.4,7.5,7.5,7.5s7.5-3.4,7.5-7.5C75.1,231.7,66.6,223.2,56.1,223.2z"/>
		</g>
	</g>
	<g>
		<g>
			<path class="st0" d="M119.5,223.2c-10.5,0-19,8.5-19,19c0,4.1,3.4,7.5,7.5,7.5s7.5-3.4,7.5-7.5c0-2.2,1.8-4,4-4s4,1.8,4,4
				c0,4.1,3.4,7.5,7.5,7.5c4.1,0,7.5-3.4,7.5-7.5C138.4,231.7,129.9,223.2,119.5,223.2z"/>
		</g>
	</g>
	<g>
		<g>
			<path class="st0" d="M182.8,223.2c-10.5,0-19,8.5-19,19c0,4.1,3.4,7.5,7.5,7.5s7.5-3.4,7.5-7.5c0-2.2,1.8-4,4-4s4,1.8,4,4
				c0,4.1,3.4,7.5,7.5,7.5s7.5-3.4,7.5-7.5C201.8,231.7,193.3,223.2,182.8,223.2z"/>
		</g>
	</g>
	<g>
		<g>
			<path class="st0" d="M56.1,292.9c-10.5,0-19,8.5-19,19c0,4.1,3.4,7.5,7.5,7.5s7.5-3.4,7.5-7.5c0-2.2,1.8-4,4-4s4,1.8,4,4
				c0,4.1,3.4,7.5,7.5,7.5s7.5-3.4,7.5-7.5C75.1,301.4,66.6,292.9,56.1,292.9z"/>
		</g>
	</g>
	<g>
		<g>
			<path class="st0" d="M119.5,292.9c-10.5,0-19,8.5-19,19c0,4.1,3.4,7.5,7.5,7.5s7.5-3.4,7.5-7.5c0-2.2,1.8-4,4-4s4,1.8,4,4
				c0,4.1,3.4,7.5,7.5,7.5c4.1,0,7.5-3.4,7.5-7.5C138.4,301.4,129.9,292.9,119.5,292.9z"/>
		</g>
	</g>
	<g>
		<g>
			<path class="st0" d="M182.8,292.9c-10.5,0-19,8.5-19,19c0,4.1,3.4,7.5,7.5,7.5s7.5-3.4,7.5-7.5c0-2.2,1.8-4,4-4s4,1.8,4,4
				c0,4.1,3.4,7.5,7.5,7.5s7.5-3.4,7.5-7.5C201.8,301.4,193.3,292.9,182.8,292.9z"/>
		</g>
	</g>
	<g>
		<g>
			<path class="st0" d="M93.4,325.6c-10.5,0-19,8.5-19,19c0,4.1,3.4,7.5,7.5,7.5s7.5-3.4,7.5-7.5c0-2.2,1.8-4,4-4s4,1.8,4,4
				c0,4.1,3.4,7.5,7.5,7.5s7.5-3.4,7.5-7.5C112.4,334.2,103.9,325.6,93.4,325.6z"/>
		</g>
	</g>
	<g>
		<g>
			<path class="st0" d="M156.8,325.6c-10.5,0-19,8.5-19,19c0,4.1,3.4,7.5,7.5,7.5s7.5-3.4,7.5-7.5c0-2.2,1.8-4,4-4s4,1.8,4,4
				c0,4.1,3.4,7.5,7.5,7.5s7.5-3.4,7.5-7.5C175.8,334.2,167.3,325.6,156.8,325.6z"/>
		</g>
	</g>
	<g>
		<g>
			<path class="st0" d="M93.4,258.2c-10.5,0-19,8.5-19,19c0,4.1,3.4,7.5,7.5,7.5s7.5-3.4,7.5-7.5c0-2.2,1.8-4,4-4s4,1.8,4,4
				c0,4.1,3.4,7.5,7.5,7.5s7.5-3.4,7.5-7.5C112.4,266.7,103.9,258.2,93.4,258.2z"/>
		</g>
	</g>
	<g>
		<g>
			<path class="st0" d="M156.8,258.2c-10.5,0-19,8.5-19,19c0,4.1,3.4,7.5,7.5,7.5s7.5-3.4,7.5-7.5c0-2.2,1.8-4,4-4s4,1.8,4,4
				c0,4.1,3.4,7.5,7.5,7.5s7.5-3.4,7.5-7.5C175.8,266.7,167.3,258.2,156.8,258.2z"/>
		</g>
	</g>
</g>
</svg>
