<?xml version="1.0" encoding="utf-8"?>
<!-- Generator: Adobe Illustrator 22.0.0, SVG Export Plug-In . SVG Version: 6.00 Build 0)  -->
<svg version="1.1" id="Capa_1" xmlns="http://www.w3.org/2000/svg" xmlns:xlink="http://www.w3.org/1999/xlink" x="0px" y="0px"
	 width="50px" height="50px" viewBox="0 0 50 50" style="enable-background:new 0 0 50 50;" xml:space="preserve">
<style type="text/css">
	.st0{fill:#487284;}
</style>
<g>
	<g>
		<g>
			<path class="st0" d="M34.3,25.4l-6.8-3.8c-0.1,0-0.2-0.1-0.3-0.1l-2.1-0.3c-0.4-0.1-0.8,0.2-0.9,0.5c-0.1,0.4,0.2,0.7,0.6,0.8
				l2,0.3l6.7,3.7c0.3,0.2,0.8,0.1,1-0.2C34.8,26,34.7,25.6,34.3,25.4z"/>
		</g>
	</g>
	<g>
		<g>
			<path class="st0" d="M49.8,25.6c-0.3-0.3-0.7-0.3-1,0l-3,2.5L32.2,16L49.8,1.1c0.3-0.2,0.3-0.7,0-0.9s-0.7-0.3-1,0L30.6,15.5
				c-0.3,0.3-0.3,0.7,0,1l1.2,1.1l-0.4,0.3l-8.1-0.6c-0.1,0-0.3,0-0.4,0.1l-6.4,2.6c0,0,0,0-0.1,0l-3.7-0.6l0.3-0.7
				c0.1-0.3,0-0.7-0.4-0.9L1,13.5c-0.4-0.1-0.8,0-1,0.4c-0.2,0.3,0,0.7,0.4,0.9l11.1,4L5,33.7l-4-1.3c-0.4-0.1-0.8,0.1-0.9,0.4
				c-0.1,0.3,0.1,0.7,0.4,0.8l4.7,1.5c0.4,0.1,0.8-0.1,0.9-0.4l1.1-2.5l2.9,1.4l-0.3,0.5c-0.9,1.3-0.4,3,1,3.8
				c0.8,0.4,1.7,0.5,2.6,0.3c0.1,0.8,0.7,1.5,1.4,1.9c0.8,0.4,1.7,0.5,2.6,0.3c0.1,0.8,0.7,1.5,1.4,1.9c0.8,0.4,1.7,0.5,2.6,0.3
				c0.1,0.8,0.7,1.5,1.4,1.9c1.1,0.6,2.6,0.5,3.6-0.2c0.3-0.2,0.5-0.4,0.6-0.7l0.5-0.7l0.4,0.2c1.1,0.6,2.6,0.5,3.6-0.2
				c0.3-0.2,0.5-0.4,0.6-0.7c0.3-0.5,0.5-1.1,0.4-1.6c0.2,0.1,0.5,0.1,0.7,0.1c1.1,0,2.1-0.5,2.6-1.3c0.3-0.5,0.5-1.1,0.5-1.6
				c0.2,0.1,0.5,0.1,0.7,0.1c1.1,0,2.1-0.5,2.6-1.3c0.3-0.5,0.5-1.1,0.5-1.6c0.2,0.1,0.5,0.1,0.7,0.1c1,0,2-0.5,2.6-1.3
				c0.9-1.3,0.4-3-1-3.8L42,29.6l1.7-1.6l1.6,1.4c0.3,0.2,0.7,0.3,1,0l3.5-2.9C50.1,26.3,50.1,25.8,49.8,25.6z M13.7,36.4
				c-0.5,0.7-1.5,0.9-2.2,0.5c-0.8-0.4-1-1.3-0.5-2l4.1-6c0.5-0.7,1.4-0.9,2.2-0.5c0.8,0.4,1,1.4,0.5,2.1L13.7,36.4z M17.7,38.6
				c-0.5,0.7-1.5,0.9-2.2,0.5c-0.7-0.4-1-1.3-0.5-2l3.3-4.8c0.5-0.7,1.4-0.9,2.2-0.5c0.8,0.4,1,1.4,0.5,2.1L17.7,38.6z M21.7,40.8
				c-0.2,0.3-0.6,0.6-1,0.6c-0.4,0.1-0.9,0-1.2-0.2c-0.7-0.4-1-1.3-0.5-2l2.5-3.6c0.5-0.7,1.4-0.9,2.2-0.5c0.8,0.4,1,1.4,0.5,2.1
				L21.7,40.8z M27.3,40.6L25.7,43c-0.5,0.7-1.5,0.9-2.2,0.5c-0.7-0.4-1-1.3-0.5-2l1.6-2.4c0.5-0.7,1.4-0.9,2.2-0.5
				C27.6,39,27.8,40,27.3,40.6z M40.7,28.9l-3.6-2c-0.3-0.2-0.8-0.1-1,0.2c-0.2,0.3-0.1,0.7,0.2,0.9l5.4,3c0.8,0.4,1,1.3,0.5,2
				c-0.5,0.7-1.5,0.9-2.2,0.5l-5.8-3.2c-0.3-0.2-0.8-0.1-1,0.2s-0.1,0.7,0.2,0.9l4.5,2.5c0.7,0.4,1,1.3,0.5,2
				c-0.5,0.7-1.5,0.9-2.2,0.5l-4.1-2.2c-0.3-0.2-0.8-0.1-1,0.2s-0.1,0.7,0.2,0.9l2.7,1.5c0.7,0.4,1,1.3,0.5,2
				c-0.5,0.7-1.5,0.9-2.2,0.5c0,0-2.4-1.3-2.4-1.3c-0.3-0.1-0.7,0-0.9,0.2c-0.2,0.3-0.1,0.7,0.2,0.9l1,0.6c0.8,0.4,1,1.3,0.5,2
				c-0.5,0.7-1.5,0.9-2.2,0.5l-0.4-0.2l0.3-0.5c0.4-0.6,0.6-1.4,0.4-2.2c-0.2-0.7-0.7-1.3-1.4-1.7c-0.6-0.3-1.2-0.4-1.8-0.4
				c0.1-0.4,0.1-0.9,0-1.3c-0.2-0.7-0.7-1.3-1.4-1.7c-0.6-0.3-1.2-0.4-1.8-0.4c0.3-1.2-0.3-2.4-1.4-3c-0.6-0.3-1.2-0.4-1.8-0.4
				c0.3-1.2-0.3-2.4-1.4-3c-1.4-0.8-3.3-0.3-4.2,0.9l-3,4.4L7.7,31l4.6-10.5l2.5,0.4c-0.7,0.8-0.9,1.9-0.4,2.9
				c0.5,1,1.6,1.6,2.8,1.6c0.4,0,0.9-0.1,1.3-0.2l4.3-1.8c0.4-0.1,0.5-0.5,0.4-0.9c-0.2-0.3-0.6-0.5-1-0.3L17.9,24
				c-0.8,0.3-1.8,0-2.1-0.7c-0.4-0.7,0-1.6,0.8-1.9l6.9-2.8l8.2,0.6c0,0,0,0,0.1,0c0.2,0,0.4-0.1,0.5-0.2l0.7-0.6l9.8,8.7L40.7,28.9
				z"/>
		</g>
	</g>
</g>
</svg>
