<?xml version="1.0" encoding="utf-8"?>
<!-- Generator: Adobe Illustrator 22.0.0, SVG Export Plug-In . SVG Version: 6.00 Build 0)  -->
<svg version="1.1" id="Layer_1" xmlns="http://www.w3.org/2000/svg" xmlns:xlink="http://www.w3.org/1999/xlink" x="0px" y="0px"
	 width="50px" height="50px" viewBox="0 0 50 50" style="enable-background:new 0 0 50 50;" xml:space="preserve">
<style type="text/css">
	.st0{fill:#487284;}
</style>
<g>
	<g>
		<path class="st0" d="M50,12.1c0-0.3-0.2-0.6-0.4-0.7L49,10.9l-0.5-1.3c-0.2-0.4-0.6-0.7-1.1-0.7l-1.1,0.1c-0.5,0.1-0.9,0.4-1,0.9
			l-0.4,2.5l-2.6,1c-0.3,0.1-0.5,0.4-0.6,0.7l-0.6,1.7l-1.2,0.9L36,13.3c-0.1-0.1-0.3-0.2-0.4-0.2l-6.1-0.7c0,0-0.1,0-0.1,0L28.2,12
			l-1.1-0.7c-0.2-0.1-0.4-0.2-0.6-0.2c0,0,0,0,0,0l-8.8,0l-2.8,0c-0.4,0-0.7,0.3-0.7,0.7c0,0.4,0.3,0.7,0.7,0.7l2,0V23H3H1.9
			l-0.4-4.3l1.1-5.1l0.4,0c0.3,0,0.6-0.1,0.8-0.3C3.9,13.1,4,13,4,12.8l7.4,0c0.4,0,0.7-0.3,0.7-0.7c0-0.4-0.3-0.7-0.7-0.7
			c0,0,0,0,0,0l-7.8,0c-0.3,0-0.6,0.1-0.8,0.3c-0.1,0.1-0.2,0.3-0.3,0.5l-0.3,0c0,0,0,0,0,0c-0.5,0-1,0.4-1.1,0.9L0,18.4
			c0,0.1,0,0.2,0,0.3l0.4,4.8c0,0.1,0,0.1,0,0.2c0,0.1,0,0.2,0.1,0.3l0.2,2c0,0.2,0.1,0.4,0.2,0.6l4.3,5.5c0.1,0.1,0.2,0.2,0.3,0.3
			c0.1,0.1,0.2,0.1,0.3,0.1l5.4,1.9c0.1,0,0.2,0.1,0.4,0.1c0,0,0,0,0,0l4.1,0l3.1,3c0.4,0.4,0.9,0.4,1.4,0.2l0.6-0.4l3.4,3.4
			c0.2,0.2,0.5,0.3,0.8,0.3c0,0,0.1,0,0.1,0l0.7,0c0.3,0,0.6-0.2,0.7-0.4c0.2-0.2,0.3-0.5,0.3-0.8l-0.1-1.4l2.5-2.1l5.1-1.2l4.7-0.1
			l0.8,1.5c0.1,0.1,0.1,0.2,0.3,0.3c0.2,0.2,0.9,0.8,1.5,1.3c1.5,1.3,1.5,1.3,1.8,1.3c0.1,0,0.2,0,1.1-0.4c0.5-0.2,0.8-0.8,0.6-1.3
			l-0.8-2.9c0-0.1-0.1-0.2-0.1-0.2l-1.7-3.1c0,0,0,0,0,0l-0.1-0.1l3.6-5.6c0.2-0.3,0.2-0.6,0.1-0.9l-0.4-1.5l0.4-4.1l1.6-1
			c0.3-0.2,0.5-0.6,0.5-1l-0.1-2.4l1.7-2C49.9,12.7,50,12.4,50,12.1z M18.5,12.7l8,0l1.1,0.6c0.1,0.1,0.2,0.1,0.3,0.1l1.2,0.3
			c0.1,0,0.1,0,0.2,0.1l5.9,0.7l0.5,0.4H18.5V12.7z M18.5,20.5h26L44.2,23H18.5V20.5z M25.5,37.4c-0.3,0.2-0.4,0.6-0.4,0.9l0.1,1.2
			l-0.1,0l-2.9-2.9h4.2L25.5,37.4z M42.7,35.2l0.7,2.6c0,0-0.1,0-0.1,0c-0.4-0.4-1.3-1.1-2.4-2.1L40.1,34c-0.2-0.4-0.6-0.6-1-0.6
			l-5,0.1c-0.1,0-0.1,0-0.2,0l-5.2,1.2c-0.2,0-0.3,0.1-0.5,0.2l-0.1,0.1h-9.7l-1.8-1.8c-0.2-0.2-0.5-0.3-0.8-0.3c0,0,0,0,0,0l-4.2,0
			l-1.2-0.4h30.9L42.7,35.2z M40.9,30.9C40.9,30.9,40.9,30.9,40.9,30.9L40.9,30.9c-0.1,0.1-0.1,0.1-0.1,0.2H6.2l-2-2.5h38.2
			L40.9,30.9z M43.4,27.1H3.1l-0.9-1.2L2,24.5h1h14.7h26.8l0.2,0.6L43.4,27.1z M46.9,14.1c-0.2,0.2-0.3,0.5-0.3,0.7l0.1,2.3l-1.6,1
			c-0.3,0.2-0.5,0.5-0.5,0.8l0,0H18.5v-2.5h18.9l2,1.8c0.3,0.2,0.6,0.2,0.9,0l1.8-1.3c0,0,0,0,0.1,0c0.1-0.1,0.2-0.3,0.3-0.5
			l0.6-1.6l2.6-1c0.4-0.1,0.6-0.5,0.7-0.8l0.4-2.4l0.5-0.1l0.5,1.1c0.1,0.2,0.2,0.3,0.3,0.5l0.3,0.3L46.9,14.1z"/>
	</g>
</g>
<g>
	<g>
		<path class="st0" d="M4.7,15.3L4.7,15.3L4.7,15.3c-0.1-0.5-0.4-0.8-0.8-0.8s-0.7,0.3-0.7,0.7v0.1H3c-0.4,0-0.7,0.3-0.7,0.7
			c0,0.4,0.3,0.7,0.7,0.7h0.1v0.1c0,0.4,0.3,0.7,0.7,0.7s0.7-0.3,0.7-0.7v-0.1h0.1c0.4,0,0.7-0.3,0.7-0.7
			C5.5,15.7,5.1,15.3,4.7,15.3z"/>
	</g>
</g>
<g>
	<g>
		<path class="st0" d="M8.4,15.3L8.4,15.3L8.4,15.3c-0.1-0.5-0.4-0.8-0.8-0.8c-0.4,0-0.7,0.3-0.7,0.7v0.1H6.7
			c-0.4,0-0.7,0.3-0.7,0.7c0,0.4,0.3,0.7,0.7,0.7h0.1v0.1c0,0.4,0.3,0.7,0.7,0.7c0.4,0,0.7-0.3,0.7-0.7v-0.1h0.1
			c0.4,0,0.7-0.3,0.7-0.7C9.2,15.7,8.8,15.3,8.4,15.3z"/>
	</g>
</g>
<g>
	<g>
		<path class="st0" d="M12.1,15.3L12.1,15.3L12.1,15.3c-0.1-0.5-0.4-0.8-0.8-0.8c-0.4,0-0.7,0.3-0.7,0.7v0.1h-0.1
			c-0.4,0-0.7,0.3-0.7,0.7c0,0.4,0.3,0.7,0.7,0.7h0.1v0.1c0,0.4,0.3,0.7,0.7,0.7c0.4,0,0.7-0.3,0.7-0.7v-0.1h0.1
			c0.4,0,0.7-0.3,0.7-0.7C12.8,15.7,12.5,15.3,12.1,15.3z"/>
	</g>
</g>
<g>
	<g>
		<path class="st0" d="M15.8,15.3L15.8,15.3L15.8,15.3c-0.1-0.5-0.4-0.8-0.8-0.8c-0.4,0-0.7,0.3-0.7,0.7v0.1h-0.1
			c-0.4,0-0.7,0.3-0.7,0.7c0,0.4,0.3,0.7,0.7,0.7h0.1v0.1c0,0.4,0.3,0.7,0.7,0.7c0.4,0,0.7-0.3,0.7-0.7v-0.1h0.1
			c0.4,0,0.7-0.3,0.7-0.7C16.5,15.7,16.2,15.3,15.8,15.3z"/>
	</g>
</g>
<g>
	<g>
		<path class="st0" d="M4.7,19.4L4.7,19.4L4.7,19.4c-0.1-0.5-0.4-0.8-0.8-0.8s-0.7,0.3-0.7,0.7v0.1H3c-0.4,0-0.7,0.3-0.7,0.7
			c0,0.4,0.3,0.7,0.7,0.7h0.1V21c0,0.4,0.3,0.7,0.7,0.7s0.7-0.3,0.7-0.7v-0.1h0.1c0.4,0,0.7-0.3,0.7-0.7C5.5,19.7,5.1,19.4,4.7,19.4
			z"/>
	</g>
</g>
<g>
	<g>
		<path class="st0" d="M8.4,19.4L8.4,19.4L8.4,19.4c-0.1-0.5-0.4-0.8-0.8-0.8c-0.4,0-0.7,0.3-0.7,0.7v0.1H6.7
			c-0.4,0-0.7,0.3-0.7,0.7c0,0.4,0.3,0.7,0.7,0.7h0.1V21c0,0.4,0.3,0.7,0.7,0.7c0.4,0,0.7-0.3,0.7-0.7v-0.1h0.1
			c0.4,0,0.7-0.3,0.7-0.7C9.2,19.7,8.8,19.4,8.4,19.4z"/>
	</g>
</g>
<g>
	<g>
		<path class="st0" d="M12.1,19.4L12.1,19.4L12.1,19.4c-0.1-0.5-0.4-0.8-0.8-0.8c-0.4,0-0.7,0.3-0.7,0.7v0.1h-0.1
			c-0.4,0-0.7,0.3-0.7,0.7c0,0.4,0.3,0.7,0.7,0.7h0.1V21c0,0.4,0.3,0.7,0.7,0.7c0.4,0,0.7-0.3,0.7-0.7v-0.1h0.1
			c0.4,0,0.7-0.3,0.7-0.7C12.8,19.7,12.5,19.4,12.1,19.4z"/>
	</g>
</g>
<g>
	<g>
		<path class="st0" d="M15.8,19.4L15.8,19.4L15.8,19.4c-0.1-0.5-0.4-0.8-0.8-0.8c-0.4,0-0.7,0.3-0.7,0.7v0.1h-0.1
			c-0.4,0-0.7,0.3-0.7,0.7c0,0.4,0.3,0.7,0.7,0.7h0.1V21c0,0.4,0.3,0.7,0.7,0.7c0.4,0,0.7-0.3,0.7-0.7v-0.1h0.1
			c0.4,0,0.7-0.3,0.7-0.7C16.5,19.7,16.2,19.4,15.8,19.4z"/>
	</g>
</g>
</svg>
