<?xml version="1.0" encoding="utf-8"?>
<!-- Generator: Adobe Illustrator 22.0.0, SVG Export Plug-In . SVG Version: 6.00 Build 0)  -->
<svg version="1.1" id="Capa_1" xmlns="http://www.w3.org/2000/svg" xmlns:xlink="http://www.w3.org/1999/xlink" x="0px" y="0px"
	 width="50px" height="50px" viewBox="0 0 50 50" style="enable-background:new 0 0 50 50;" xml:space="preserve">
<style type="text/css">
	.st0{fill:#487284;}
</style>
<g>
	<g>
		<g>
			<path class="st0" d="M47.3,0h-5.5c-0.4,0-0.7,0.3-0.7,0.8s0.3,0.8,0.7,0.8h5.5c0.7,0,1.2,0.6,1.2,1.3v4.8c-3.9,0-7.7,0-11.5,0
				c-0.4,0-0.7,0.3-0.7,0.8c0,0.4,0.3,0.8,0.7,0.8c0,0,0,0,0,0c3.8,0,7.6,0,11.5,0v34.2c0,0.1-0.1,0.2-0.2,0.2H11.2
				c-0.4,0-0.7,0.3-0.7,0.8s0.3,0.8,0.7,0.8h37.2c0.9,0,1.6-0.8,1.6-1.7V2.8C50,1.2,48.8,0,47.3,0z"/>
		</g>
	</g>
	<g>
		<g>
			<path class="st0" d="M38.8,0H2.7C1.2,0,0,1.2,0,2.8v40.5C0,44.2,0.7,45,1.6,45h6.6C8.6,45,9,44.7,9,44.2s-0.3-0.8-0.7-0.8H1.6
				c-0.1,0-0.2-0.1-0.2-0.2V9.2c10.8,0,21.7,0,32.4,0c0,0,0,0,0,0c0.4,0,0.7-0.3,0.7-0.8c0-0.4-0.3-0.8-0.7-0.8
				c-10.7,0-21.6,0-32.4,0V2.8c0-0.7,0.5-1.3,1.2-1.3h36.2c0.4,0,0.7-0.3,0.7-0.8C39.6,0.3,39.2,0,38.8,0z"/>
		</g>
	</g>
	<g>
		<g>
			<path class="st0" d="M33.4,4H7.2C6.8,4,6.5,4.3,6.5,4.7s0.3,0.8,0.7,0.8h26.1c0.4,0,0.7-0.3,0.7-0.8S33.8,4,33.4,4z"/>
		</g>
	</g>
	<g>
		<g>
			<path class="st0" d="M36.9,3.7c-0.4,0-0.7,0.3-0.7,0.8v0.1c0,0.4,0.3,0.8,0.7,0.8s0.7-0.3,0.7-0.8V4.5
				C37.6,4.1,37.3,3.7,36.9,3.7z"/>
		</g>
	</g>
	<g>
		<g>
			<path class="st0" d="M39.8,3.7c-0.4,0-0.7,0.3-0.7,0.8v0.1c0,0.4,0.3,0.8,0.7,0.8c0.4,0,0.7-0.3,0.7-0.8V4.5
				C40.6,4.1,40.2,3.7,39.8,3.7z"/>
		</g>
	</g>
	<g>
		<g>
			<path class="st0" d="M42.8,3.7c-0.4,0-0.7,0.3-0.7,0.8v0.1c0,0.4,0.3,0.8,0.7,0.8s0.7-0.3,0.7-0.8V4.5
				C43.5,4.1,43.2,3.7,42.8,3.7z"/>
		</g>
	</g>
	<g>
		<g>
			<path class="st0" d="M41.4,33.9h-5.9c-0.4,0-0.7,0.3-0.7,0.8s0.3,0.8,0.7,0.8h5.9c0.4,0,0.7-0.3,0.7-0.8S41.8,33.9,41.4,33.9z"/>
		</g>
	</g>
	<g>
		<g>
			<path class="st0" d="M41.4,36.3h-2.1c-0.4,0-0.7,0.3-0.7,0.8c0,0.4,0.3,0.8,0.7,0.8h2.1c0.4,0,0.7-0.3,0.7-0.8
				C42.2,36.7,41.8,36.3,41.4,36.3z"/>
		</g>
	</g>
	<g>
		<g>
			<path class="st0" d="M11.7,25.1l4-4.2c0.3-0.3,0.3-0.8,0-1.1c-0.3-0.3-0.7-0.3-1,0l-4.5,4.7C10,24.7,10,24.9,10,25.1
				c0,0.2,0.1,0.4,0.2,0.5l4.5,4.7c0.1,0.1,0.3,0.2,0.5,0.2c0.2,0,0.4-0.1,0.5-0.2c0.3-0.3,0.3-0.8,0-1.1L11.7,25.1z"/>
		</g>
	</g>
	<g>
		<g>
			<path class="st0" d="M39.8,24.6l-4.5-4.7c-0.3-0.3-0.7-0.3-1,0c-0.3,0.3-0.3,0.8,0,1.1l4,4.2l-4,4.2c-0.3,0.3-0.3,0.8,0,1.1
				c0.1,0.1,0.3,0.2,0.5,0.2c0.2,0,0.4-0.1,0.5-0.2l4.5-4.7c0.1-0.1,0.2-0.3,0.2-0.5C40,24.9,40,24.7,39.8,24.6z"/>
		</g>
	</g>
	<g>
		<g>
			<path class="st0" d="M23.9,20.4c-0.4-0.2-0.8-0.1-1,0.3l-4.5,8.8c-0.2,0.4-0.1,0.8,0.3,1c0.1,0.1,0.2,0.1,0.3,0.1
				c0.3,0,0.5-0.1,0.6-0.4l4.5-8.8C24.4,21,24.3,20.6,23.9,20.4z"/>
		</g>
	</g>
	<g>
		<g>
			<path class="st0" d="M24.7,28.9c-0.4,0-0.7,0.3-0.7,0.8v0.1c0,0.4,0.3,0.8,0.7,0.8c0.4,0,0.7-0.3,0.7-0.8v-0.1
				C25.4,29.2,25.1,28.9,24.7,28.9z"/>
		</g>
	</g>
	<g>
		<g>
			<path class="st0" d="M28,28.9c-0.4,0-0.7,0.3-0.7,0.8v0.1c0,0.4,0.3,0.8,0.7,0.8c0.4,0,0.7-0.3,0.7-0.8v-0.1
				C28.8,29.2,28.4,28.9,28,28.9z"/>
		</g>
	</g>
	<g>
		<g>
			<path class="st0" d="M31.3,28.9c-0.4,0-0.7,0.3-0.7,0.8v0.1c0,0.4,0.3,0.8,0.7,0.8c0.4,0,0.7-0.3,0.7-0.8v-0.1
				C32.1,29.2,31.8,28.9,31.3,28.9z"/>
		</g>
	</g>
</g>
</svg>
