<?xml version="1.0" encoding="utf-8"?>
<!-- Generator: Adobe Illustrator 22.0.0, SVG Export Plug-In . SVG Version: 6.00 Build 0)  -->
<svg version="1.1" id="Layer_1" xmlns="http://www.w3.org/2000/svg" xmlns:xlink="http://www.w3.org/1999/xlink" x="0px" y="0px"
	 width="50px" height="50px" viewBox="0 0 50 50" style="enable-background:new 0 0 50 50;" xml:space="preserve">
<style type="text/css">
	.st0{fill:#487284;}
</style>
<g>
	<g>
		<g>
			<path class="st0" d="M45.3,40.5c-0.1,0-0.3,0-0.4,0c-0.5-0.9-1.5-1.5-2.6-1.5c-1.1,0-2.1,0.6-2.6,1.5c-0.1,0-0.3,0-0.4,0
				c-1.2,0-2.3,1-2.3,2.3c0,0.3,0.1,0.5,0.1,0.7H34V39h3.8c0.4,0,0.7-0.3,0.7-0.7v-30c0-0.4-0.3-0.7-0.7-0.7H15.3
				c-0.4,0-0.7,0.3-0.7,0.7v36c0,0.4,0.3,0.7,0.7,0.7h30c1.2,0,2.3-1,2.3-2.3S46.5,40.5,45.3,40.5z M34,9h3v4.5h-3V9z M34,15h3v4.5
				h-3V15z M34,21h3v4.5h-3V21z M34,27h3v4.5h-3V27z M34,33h3v4.5h-3V33z M19,43.5h-3V39h3V43.5z M19,37.5h-3V33h3V37.5z M19,31.5
				h-3V27h3V31.5z M19,25.5h-3V21h3V25.5z M19,19.5h-3V15h3V19.5z M19,13.5h-3V9h3V13.5z M23.5,43.5h-3V39h3V43.5z M23.5,37.5h-3V33
				h3V37.5z M23.5,31.5h-3V27h3V31.5z M23.5,25.5h-3V21h3V25.5z M23.5,19.5h-3V15h3V19.5z M23.5,13.5h-3V9h3V13.5z M28,43.5h-3V39h3
				V43.5z M28,37.5h-3V33h3V37.5z M28,31.5h-3V27h3V31.5z M28,25.5h-3V21h3V25.5z M28,19.5h-3V15h3V19.5z M28,13.5h-3V9h3V13.5z
				 M32.5,43.5h-3V39h3V43.5z M32.5,37.5h-3V33h3V37.5z M32.5,31.5h-3V27h3V31.5z M32.5,25.5h-3V21h3V25.5z M32.5,19.5h-3V15h3V19.5
				z M32.5,13.5h-3V9h3V13.5z M45.3,43.5h-6c-0.4,0-0.7-0.3-0.7-0.7s0.3-0.7,0.7-0.7c0.1,0,0.3,0,0.4,0.1c0.2,0.1,0.5,0.2,0.7,0.1
				c0.2-0.1,0.4-0.3,0.4-0.5c0.2-0.7,0.8-1.2,1.5-1.2c0.7,0,1.3,0.5,1.5,1.2c0.1,0.2,0.2,0.4,0.4,0.5c0.2,0.1,0.5,0.1,0.7-0.1
				c0.5-0.3,1.2,0.1,1.2,0.6C46,43.2,45.7,43.5,45.3,43.5z"/>
			<path class="st0" d="M19,5.2V3h5.2C24.7,3,25,2.7,25,2.3V1.5h3v0.7C28,2.7,28.3,3,28.7,3H34v1.5H21.2c-0.4,0-0.7,0.3-0.7,0.7
				S20.8,6,21.2,6H40v31.1c0,0.4,0.3,0.7,0.7,0.7s0.7-0.3,0.7-0.7V5.2c0-0.4-0.3-0.7-0.7-0.7h-5.2V2.3c0-0.4-0.3-0.7-0.7-0.7h-5.2
				V0.7c0-0.4-0.3-0.7-0.7-0.7h-4.5c-0.4,0-0.7,0.3-0.7,0.7v0.7h-5.3c-0.4,0-0.7,0.3-0.7,0.7v2.2h-5.2c-0.4,0-0.7,0.3-0.7,0.7v38.3
				H7v-3.1c1.7-0.3,3-1.9,3-3.7c0-0.1,0-9.7-3.8-9.7c-3.7,0-3.7,9.7-3.7,9.8c0,1.8,1.3,3.3,3,3.7v3.1H3.2c-0.4,0-0.7,0.3-0.7,0.7
				S2.8,45,3.2,45h9c0.4,0,0.7-0.3,0.7-0.7V6h5.3C18.7,6,19,5.7,19,5.2z M4,36.7c0-3.7,1-8.3,2.3-8.3s2.3,4.5,2.3,8.3
				c0,1.2-1,2.3-2.3,2.3S4,38,4,36.7z"/>
		</g>
	</g>
</g>
</svg>
