<?xml version="1.0" encoding="utf-8"?>
<!-- Generator: Adobe Illustrator 22.0.0, SVG Export Plug-In . SVG Version: 6.00 Build 0)  -->
<svg version="1.1" id="Capa_1" xmlns="http://www.w3.org/2000/svg" xmlns:xlink="http://www.w3.org/1999/xlink" x="0px" y="0px"
	 viewBox="0 0 50 50" style="enable-background:new 0 0 50 50;" xml:space="preserve">
<style type="text/css">
	.st0{fill:#487284;}
</style>
<g>
	<g>
		<g>
			<path class="st0" d="M37.4,12.6C34.1,9.3,29.7,7.5,25,7.5s-9.1,1.8-12.4,5.1S7.5,20.3,7.5,25s1.8,9.1,5.1,12.4s7.7,5.1,12.4,5.1
				s9.1-1.8,12.4-5.1s5.1-7.7,5.1-12.4S40.7,15.9,37.4,12.6z M36.4,36.4c-3.1,3-7.1,4.7-11.4,4.7s-8.3-1.7-11.4-4.8
				c-3-3-4.7-7-4.7-11.3s1.7-8.3,4.7-11.4c3.1-3,7.1-4.7,11.4-4.7s8.3,1.7,11.4,4.8c3,3,4.7,7,4.7,11.3S39.4,33.3,36.4,36.4z"/>
		</g>
	</g>
	<g>
		<g>
			<path class="st0" d="M25,11.1c-2,0-3.9,0.4-5.7,1.3c-0.4,0.1-0.5,0.6-0.4,0.9l0,0c0.1,0.3,0.6,0.5,0.9,0.3
				c1.6-0.8,3.4-1.1,5.2-1.1c6.9,0,12.5,5.6,12.5,12.5S31.9,37.5,25,37.5S12.5,31.9,12.5,25c0-2.6,0.8-5.1,2.3-7.2
				c0.2-0.3,0.1-0.7-0.1-0.9l0,0c-0.3-0.2-0.7-0.1-1,0.1c-1.7,2.3-2.6,5.1-2.6,8c0,7.6,6.2,13.9,13.9,13.9S38.9,32.6,38.9,25
				S32.6,11.1,25,11.1z"/>
		</g>
	</g>
	<g>
		<g>
			<path class="st0" d="M21.1,23.4C21.1,23.3,21.1,23.3,21.1,23.4C21.1,23.3,21.1,23.3,21.1,23.4z"/>
		</g>
	</g>
	<g>
		<g>
			<path class="st0" d="M21.1,23.3C21.1,23.3,21.1,23.3,21.1,23.3C21.1,23.3,21.1,23.3,21.1,23.3z"/>
		</g>
	</g>
	<g>
		<g>
			<path class="st0" d="M28.9,26.6L28.9,26.6L28.9,26.6z"/>
		</g>
	</g>
	<g>
		<g>
			<path class="st0" d="M29,26.5C28.9,26.5,28.9,26.5,29,26.5C28.9,26.5,28.9,26.5,29,26.5z"/>
		</g>
	</g>
	<g>
		<g>
			<path class="st0" d="M21,23.5C21,23.5,21.1,23.5,21,23.5C21.1,23.5,21,23.5,21,23.5z"/>
		</g>
	</g>
	<g>
		<g>
			<path class="st0" d="M29,26.3L29,26.3L29,26.3z"/>
		</g>
	</g>
	<g>
		<g>
			<path class="st0" d="M29,26.4C29,26.5,29,26.5,29,26.4C29,26.5,29,26.5,29,26.4z"/>
		</g>
	</g>
	<g>
		<g>
			<path class="st0" d="M21.1,23.5C21.1,23.4,21.1,23.4,21.1,23.5C21.1,23.4,21.1,23.4,21.1,23.5z"/>
		</g>
	</g>
	<g>
		<g>
			<path class="st0" d="M21,23.6C21,23.6,21,23.5,21,23.6C21,23.5,21,23.6,21,23.6z"/>
		</g>
	</g>
	<g>
		<g>
			<path class="st0" d="M28.9,26.7C28.9,26.7,28.9,26.7,28.9,26.7C28.9,26.7,28.9,26.7,28.9,26.7z"/>
		</g>
	</g>
	<g>
		<g>
			<path class="st0" d="M28.9,15.2c0.2,0.1,0.4,0.4,0.4,0.6C29.3,15.6,29.2,15.3,28.9,15.2z"/>
		</g>
	</g>
	<g>
		<g>
			<path class="st0" d="M28.9,15.2L28.9,15.2c-0.4-0.1-0.6-0.1-0.8,0.1l-6.9,7.9c0,0,0,0.1-0.1,0.1l0,0c0,0,0,0,0,0.1l0,0v0.1l0,0
				v0.1l0,0v0.1l0,0v0.1l-0.4,10.5c0,0.3,0.1,0.6,0.4,0.6c0.1,0,0.1,0.1,0.3,0.1c0.2,0,0.3-0.1,0.5-0.2l6.9-7.9c0,0,0,0,0.1-0.1l0,0
				v-0.1l0,0c0,0,0,0,0-0.1l0,0v-0.1l0,0v-0.1l0,0v-0.1l0.4-10.5C29.3,15.6,29.2,15.3,28.9,15.2z M22.1,32.3l0.2-7.6l4.8,1.9
				L22.1,32.3z M27.7,25.3l-4.8-1.9l5-5.7L27.7,25.3z"/>
		</g>
	</g>
	<g>
		<g>
			<path class="st0" d="M25,13.6c-0.4,0-0.7,0.3-0.7,0.7v1.1c0,0.3,0.3,0.7,0.7,0.7c0.4,0,0.7-0.3,0.7-0.7v-1.1
				C25.7,13.9,25.4,13.6,25,13.6z"/>
		</g>
	</g>
	<g>
		<g>
			<path class="st0" d="M25,34c-0.4,0-0.7,0.3-0.7,0.7v1c0,0.3,0.3,0.7,0.7,0.7c0.4,0,0.7-0.3,0.7-0.7v-1C25.7,34.2,25.4,34,25,34z"
				/>
		</g>
	</g>
	<g>
		<g>
			<path class="st0" d="M35.7,24.3h-1c-0.4,0-0.7,0.3-0.7,0.7c0,0.4,0.3,0.7,0.7,0.7h1c0.3,0,0.7-0.3,0.7-0.7S36.1,24.3,35.7,24.3z"
				/>
		</g>
	</g>
	<g>
		<g>
			<path class="st0" d="M15.3,24.3h-1.1c-0.4,0-0.7,0.3-0.7,0.7c0,0.4,0.3,0.7,0.7,0.7h1.1c0.3,0,0.7-0.3,0.7-0.7
				S15.8,24.3,15.3,24.3z"/>
		</g>
	</g>
	<g>
		<g>
			<path class="st0" d="M17.2,14.4c-0.1-0.1-0.4-0.3-0.6-0.3l0,0c-0.4,0-0.7,0.3-0.7,0.7c0,0.1,0.1,0.3,0.1,0.4
				c0.1,0.1,0.3,0.2,0.5,0.2c0.4,0,0.7-0.3,0.7-0.7C17.4,14.6,17.3,14.5,17.2,14.4z"/>
		</g>
	</g>
</g>
</svg>
