<?xml version="1.0" encoding="utf-8"?>
<!-- Generator: Adobe Illustrator 22.0.0, SVG Export Plug-In . SVG Version: 6.00 Build 0)  -->
<svg version="1.1" id="Capa_1" xmlns="http://www.w3.org/2000/svg" xmlns:xlink="http://www.w3.org/1999/xlink" x="0px" y="0px"
	 viewBox="0 0 50 50" style="enable-background:new 0 0 50 50;" xml:space="preserve">
<style type="text/css">
	.st0{fill:#487284;}
</style>
<g>
	<g>
		<path class="st0" d="M41.8,24.3L41.8,24.3c-0.4,0-0.7,0.3-0.7,0.7c0,4.3-1.7,8.4-4.7,11.4c-3,3-7.1,4.7-11.4,4.7
			s-8.4-1.7-11.4-4.7c-3-3-4.7-7.1-4.7-11.4c0-4.3,1.7-8.4,4.7-11.4c4.9-4.9,12.3-6.1,18.5-3.1c0.3,0.2,0.7,0,0.9-0.3
			c0.2-0.3,0-0.7-0.3-0.9C26,6,17.9,7.3,12.6,12.6C9.3,15.9,7.5,20.3,7.5,25c0,4.7,1.8,9.1,5.1,12.4c3.3,3.3,7.7,5.1,12.4,5.1
			s9.1-1.8,12.4-5.1c3.3-3.3,5.1-7.7,5.1-12.4C42.5,24.6,42.2,24.3,41.8,24.3z"/>
	</g>
</g>
<g>
	<g>
		<path class="st0" d="M35.1,10.7L35.1,10.7c-0.3-0.2-0.8-0.2-1,0.2c-0.2,0.3-0.1,0.7,0.2,1l0,0c0.1,0.1,0.3,0.1,0.4,0.1
			c0.2,0,0.4-0.1,0.6-0.3C35.5,11.3,35.4,10.9,35.1,10.7z"/>
	</g>
</g>
<g>
	<g>
		<path class="st0" d="M12.5,25L12.5,25c0,0.4,0.3,0.7,0.6,0.7l0,0c0.3,0,0.6-0.3,0.6-0.6v0c0-0.3-0.3-0.6-0.6-0.6
			C12.7,24.4,12.5,24.7,12.5,25z"/>
	</g>
</g>
<g>
	<g>
		<path class="st0" d="M12.7,27.6c0.6,2.8,2.1,5.3,4.3,7.1c2.2,1.8,5.1,2.8,7.9,2.8c6.9,0,12.5-5.6,12.5-12.5c0-4.7-2.6-8.9-6.6-11
			l0.2-0.1c0.3-0.1,0.4-0.5,0.3-0.8c-0.1-0.3-0.5-0.4-0.8-0.3l-1.4,0.7c-0.3,0.1-0.4,0.5-0.3,0.8l0.7,1.4c0.1,0.2,0.3,0.3,0.5,0.3
			c0.1,0,0.2,0,0.3-0.1c0.2-0.1,0.4-0.4,0.3-0.6c3.4,2,5.5,5.7,5.5,9.7c0,6.2-5.1,11.3-11.3,11.3c-5.3,0-10-3.8-11.1-9
			c-0.1-0.3-0.4-0.5-0.7-0.5C12.9,27,12.6,27.3,12.7,27.6z"/>
	</g>
</g>
<g>
	<g>
		<path class="st0" d="M25,23.1c-0.9,0-1.6,0.6-1.9,1.3h-5c-0.3,0-0.6,0.3-0.6,0.6s0.3,0.6,0.6,0.6h5c0.2,0.6,0.7,1,1.2,1.2v6.6
			c0,0.3,0.3,0.6,0.6,0.6c0.3,0,0.6-0.3,0.6-0.6v-6.6c0.8-0.3,1.3-1,1.3-1.9C26.9,23.9,26.1,23.1,25,23.1z M25,25.7
			c-0.4,0-0.7-0.3-0.7-0.7s0.3-0.7,0.7-0.7s0.7,0.3,0.7,0.7S25.4,25.7,25,25.7z"/>
	</g>
</g>
</svg>
