<?xml version="1.0" encoding="utf-8"?>
<!-- Generator: Adobe Illustrator 22.0.0, SVG Export Plug-In . SVG Version: 6.00 Build 0)  -->
<svg version="1.1" id="Layer_1" xmlns="http://www.w3.org/2000/svg" xmlns:xlink="http://www.w3.org/1999/xlink" x="0px" y="0px"
	 viewBox="0 0 50 50" style="enable-background:new 0 0 50 50;" xml:space="preserve">
<style type="text/css">
	.st0{fill:#487284;}
</style>
<g>
	<g>
		<path class="st0" d="M32.3,16.6l4.6-6.3c0.2-0.2,0.2-0.5,0.1-0.9C36.9,9.2,36.6,9,36.3,9H16.2V8c0.7-0.3,1.2-1,1.2-1.8
			c0-1.1-0.9-2-2-2s-2,0.9-2,2c0,0.8,0.5,1.5,1.2,1.8v30.3h-1c-0.4,0-0.9,0.4-0.9,0.9c0,0.5,0.4,0.8,0.9,0.8h3.8
			c0.4,0,0.9-0.4,0.9-0.9s-0.4-0.9-0.9-0.9h-1.1v-14h20.1c0.3,0,0.5-0.2,0.7-0.4c0.2-0.3,0.2-0.6-0.1-0.9L32.3,16.6z M15.5,6.8
			c-0.3,0-0.5-0.2-0.5-0.5s0.2-0.5,0.5-0.5c0.4,0,0.5,0.2,0.5,0.5C16,6.5,15.8,6.8,15.5,6.8z M16.2,22.6L16.2,22.6v-2.7h2.7
			c0.4,0,0.9-0.4,0.9-0.9c0-0.4-0.4-0.9-0.9-0.9h-2.7v-3h4.1c0.4,0,0.9-0.4,0.9-0.9c0-0.4-0.4-0.9-0.9-0.9h-4.1v-2.5h18.4l-4,5.4
			c-0.2,0.3-0.2,0.7,0,1l4,5.4L16.2,22.6L16.2,22.6z"/>
	</g>
</g>
</svg>
