<?xml version="1.0" encoding="utf-8"?>
<!-- Generator: Adobe Illustrator 22.0.0, SVG Export Plug-In . SVG Version: 6.00 Build 0)  -->
<svg version="1.1" id="Capa_1" xmlns="http://www.w3.org/2000/svg" xmlns:xlink="http://www.w3.org/1999/xlink" x="0px" y="0px"
	 viewBox="0 0 512 512" style="enable-background:new 0 0 512 512;" xml:space="preserve">
<style type="text/css">
	.st0{fill:#487284;}
</style>
<g>
	<g>
		<path class="st0" d="M184.7,208c-16.9,0-30.6,13.7-30.6,30.6s13.7,30.6,30.6,30.6s30.6-13.7,30.6-30.6S201.6,208,184.7,208z
			 M184.7,254.2c-8.6,0-15.6-7-15.6-15.6s7-15.6,15.6-15.6s15.6,7,15.6,15.6S193.3,254.2,184.7,254.2z"/>
	</g>
</g>
<g>
	<g>
		<path class="st0" d="M264.5,208c-16.9,0-30.6,13.7-30.6,30.6s13.7,30.6,30.6,30.6s30.6-13.7,30.6-30.6S281.3,208,264.5,208z
			 M264.5,254.2c-8.6,0-15.6-7-15.6-15.6s7-15.6,15.6-15.6s15.6,7,15.6,15.6S273.1,254.2,264.5,254.2z"/>
	</g>
</g>
<g>
	<g>
		<path class="st0" d="M344.2,208c-16.9,0-30.6,13.7-30.6,30.6s13.7,30.6,30.6,30.6s30.6-13.7,30.6-30.6S361.1,208,344.2,208z
			 M344.2,254.2c-8.6,0-15.6-7-15.6-15.6s7-15.6,15.6-15.6s15.6,7,15.6,15.6S352.8,254.2,344.2,254.2z"/>
	</g>
</g>
<g>
	<g>
		<path class="st0" d="M184.7,282.7c-16.9,0-30.6,13.7-30.6,30.6s13.7,30.6,30.6,30.6s30.6-13.7,30.6-30.6S201.6,282.7,184.7,282.7z
			 M184.7,328.9c-8.6,0-15.6-7-15.6-15.6s7-15.6,15.6-15.6s15.6,7,15.6,15.6S193.3,328.9,184.7,328.9z"/>
	</g>
</g>
<g>
	<g>
		<path class="st0" d="M344.2,282.7c-16.9,0-30.6,13.7-30.6,30.6s13.7,30.6,30.6,30.6s30.6-13.7,30.6-30.6
			C374.8,296.4,361.1,282.7,344.2,282.7z M344.2,328.9c-8.6,0-15.6-7-15.6-15.6s7-15.6,15.6-15.6s15.6,7,15.6,15.6
			C359.8,321.9,352.8,328.9,344.2,328.9z"/>
	</g>
</g>
<g>
	<g>
		<path class="st0" d="M264.5,282.7c-16.9,0-30.6,13.7-30.6,30.6s13.7,30.6,30.6,30.6s30.6-13.7,30.6-30.6S281.3,282.7,264.5,282.7z
			 M264.5,328.9c-8.6,0-15.6-7-15.6-15.6s7-15.6,15.6-15.6s15.6,7,15.6,15.6S273.1,328.9,264.5,328.9z"/>
	</g>
</g>
<g>
	<g>
		<path class="st0" d="M264.5,357.3c-16.9,0-30.6,13.7-30.6,30.6s13.7,30.6,30.6,30.6s30.6-13.7,30.6-30.6S281.3,357.3,264.5,357.3z
			 M264.5,403.5c-8.6,0-15.6-7-15.6-15.6s7-15.6,15.6-15.6s15.6,7,15.6,15.6C280,396.5,273.1,403.5,264.5,403.5z"/>
	</g>
</g>
<g>
	<g>
		<path class="st0" d="M184.7,357.3c-16.9,0-30.6,13.7-30.6,30.6s13.7,30.6,30.6,30.6s30.6-13.7,30.6-30.6S201.6,357.3,184.7,357.3z
			 M184.7,403.5c-8.6,0-15.6-7-15.6-15.6s7-15.6,15.6-15.6s15.6,7,15.6,15.6S193.3,403.5,184.7,403.5z"/>
	</g>
</g>
<g>
	<g>
		<path class="st0" d="M115.5,238.6l11-11c2.9-2.9,2.9-7.7,0-10.6c-2.9-2.9-7.7-2.9-10.6,0l-11,11l-11-11c-2.9-2.9-7.7-2.9-10.6,0
			s-2.9,7.7,0,10.6l11,11l-11,11c-2.9,2.9-2.9,7.7,0,10.6c1.5,1.5,3.4,2.2,5.3,2.2s3.8-0.7,5.3-2.2l11-11l11,11
			c1.5,1.5,3.4,2.2,5.3,2.2s3.8-0.7,5.3-2.2c2.9-2.9,2.9-7.7,0-10.6L115.5,238.6z"/>
	</g>
</g>
<g>
	<g>
		<path class="st0" d="M115.5,313.3l11-11c2.9-2.9,2.9-7.7,0-10.6c-2.9-2.9-7.7-2.9-10.6,0l-11,11l-11-11c-2.9-2.9-7.7-2.9-10.6,0
			s-2.9,7.7,0,10.6l11,11l-11,11c-2.9,2.9-2.9,7.7,0,10.6c1.5,1.5,3.4,2.2,5.3,2.2s3.8-0.7,5.3-2.2l11-11l11,11
			c1.5,1.5,3.4,2.2,5.3,2.2s3.8-0.7,5.3-2.2c2.9-2.9,2.9-7.7,0-10.6L115.5,313.3z"/>
	</g>
</g>
<g>
	<g>
		<path class="st0" d="M126.6,398.9l-11-11l11-11c2.9-2.9,2.9-7.7,0-10.6s-7.7-2.9-10.6,0l-11,11l-11-11c-2.9-2.9-7.7-2.9-10.6,0
			s-2.9,7.7,0,10.6l11,11l-11,11c-2.9,2.9-2.9,7.7,0,10.6c1.5,1.5,3.4,2.2,5.3,2.2s3.8-0.7,5.3-2.2l11-11l11,11
			c1.5,1.5,3.4,2.2,5.3,2.2s3.8-0.7,5.3-2.2C129.5,406.6,129.5,401.8,126.6,398.9z"/>
	</g>
</g>
<g>
	<g>
		<path class="st0" d="M511.6,421.2l-20.5-107.6c-0.8-4.1-4.7-6.7-8.8-6c-4.1,0.8-6.7,4.7-6,8.8L496.8,424c1.1,6-3.9,11.7-10.9,11.7
			H375l72-72c1.3-1.3,2.2-3.2,2.2-5.3V173.1l20.6,108.2c0.8,4.1,4.7,6.7,8.8,6c4.1-0.8,6.7-4.7,6-8.8l-35.5-186
			c-0.5-11.1-9.6-19.9-20.8-19.9h-65.7V48.5c0-4.1-3.4-7.5-7.5-7.5s-7.5,3.4-7.5,7.5v24.1h-50.2V48.5c0-4.1-3.4-7.5-7.5-7.5
			s-7.5,3.4-7.5,7.5v24.1h-50.2V48.5c0-4.1-3.4-7.5-7.5-7.5s-7.5,3.4-7.5,7.5v24.1H167V48.5c0-4.1-3.4-7.5-7.5-7.5s-7.5,3.4-7.5,7.5
			v24.1h-50.2V48.5c0-4.1-3.4-7.5-7.5-7.5s-7.5,3.4-7.5,7.5v24.1H20.9C9.4,72.6,0,82,0,93.5v356.6C0,461.6,9.4,471,20.9,471h186.2
			c4.1,0,7.5-3.4,7.5-7.5s-3.4-7.5-7.5-7.5H20.9c-3.2,0-5.9-2.6-5.9-5.9V170h419.2v181H350c-11.5,0-20.9,9.4-20.9,20.9V456h-87
			c-4.1,0-7.5,3.4-7.5,7.5s3.4,7.5,7.5,7.5h94.5c1.9,0,3.9-0.8,5.3-2.2l18.1-18.1h126C502.3,450.7,514.5,436.6,511.6,421.2z M15,155
			V93.5c0-3.2,2.6-5.9,5.9-5.9h65.7v33.7c0,4.1,3.4,7.5,7.5,7.5s7.5-3.4,7.5-7.5V87.6h50.2v33.7c0,4.1,3.4,7.5,7.5,7.5
			s7.5-3.4,7.5-7.5V87.6H217v33.7c0,4.1,3.4,7.5,7.5,7.5s7.5-3.4,7.5-7.5V87.6h50.2v33.7c0,4.1,3.4,7.5,7.5,7.5s7.5-3.4,7.5-7.5
			V87.6h50.2v33.7c0,4.1,3.4,7.5,7.5,7.5s7.5-3.4,7.5-7.5V87.6h65.7c3.2,0,5.9,2.6,5.9,5.9V155H15L15,155z M344.1,445.4v-73.6
			c0-3.2,2.6-5.9,5.9-5.9h73.6C416,373.5,351.6,437.9,344.1,445.4z"/>
	</g>
</g>
</svg>
