<?xml version="1.0" encoding="utf-8"?>
<!-- Generator: Adobe Illustrator 22.0.0, SVG Export Plug-In . SVG Version: 6.00 Build 0)  -->
<svg version="1.1" id="Capa_1" xmlns="http://www.w3.org/2000/svg" xmlns:xlink="http://www.w3.org/1999/xlink" x="0px" y="0px"
	 viewBox="0 0 60 60" style="enable-background:new 0 0 60 60;" xml:space="preserve">
<style type="text/css">
	.st0{fill:#487284;}
</style>
<g>
	<path class="st0" d="M57.5,27H54v-6.3c0-1.5-1.2-2.7-2.7-2.7H48v-2.4l-0.5-0.5l0,0l-7.3-7.3L32.4,0H8v11H2.7C1.2,11,0,12.2,0,13.7
		v43.7l0,0C0,58,0.2,58.5,0.5,59c0.5,0.6,1.2,1,2,1h44.8c1.2,0,2.2-0.8,2.5-1.8l10.2-28V30C60,28.3,58.9,27,57.5,27z M51.3,20
		c0.4,0,0.7,0.3,0.7,0.7V27h-4v-7H51.3z M33,3.4L44.6,15H33V3.4z M10,2h21v15h15v1v9H12.7c-0.1,0-0.3,0-0.4,0c-1,0.2-1.8,0.9-2,1.8
		L10,29.6V11V2z M2,13.7C2,13.3,2.3,13,2.7,13H8v22L2,51.4V13.7z M47.9,57.6c-0.1,0.2-0.3,0.4-0.5,0.4H2.6c-0.2,0-0.4-0.1-0.4-0.2
		C2.1,57.7,2,57.5,2,57.4l6-16.5l0,0l4.2-11.4v-0.1c0.1-0.2,0.3-0.4,0.5-0.4H46h2h6h3.5c0.4,0,0.5,0.5,0.5,0.8L47.9,57.6z"/>
	<path class="st0" d="M16,17h10c0.6,0,1-0.4,1-1s-0.4-1-1-1H16c-0.6,0-1,0.4-1,1S15.4,17,16,17z"/>
	<path class="st0" d="M16,10h10c0.6,0,1-0.4,1-1s-0.4-1-1-1H16c-0.6,0-1,0.4-1,1S15.4,10,16,10z"/>
	<path class="st0" d="M16,24h24c0.6,0,1-0.4,1-1s-0.4-1-1-1H16c-0.6,0-1,0.4-1,1S15.4,24,16,24z"/>
</g>
</svg>
