<?xml version="1.0" encoding="utf-8"?>
<!-- Generator: Adobe Illustrator 22.0.0, SVG Export Plug-In . SVG Version: 6.00 Build 0)  -->
<svg version="1.1" id="Capa_1" xmlns="http://www.w3.org/2000/svg" xmlns:xlink="http://www.w3.org/1999/xlink" x="0px" y="0px"
	 viewBox="0 0 480 480" style="enable-background:new 0 0 480 480;" xml:space="preserve">
<style type="text/css">
	.st0{fill:#487284;}
</style>
<g>
	<g>
		<g>
			<path class="st0" d="M468,255.7c-8.5-33-34.3-58.8-67.4-67.4v-26.6c0-4.3-3.5-7.8-7.8-7.8h-62.7V83.3c0-4.3-3.5-7.8-7.8-7.8
				h-23.5V44.2c0-4.3-3.5-7.8-7.8-7.8H157.8c0-17.3-14-31.3-31.3-31.3S95.1,19,95.1,36.3H79.5c-4.3,0-7.8,3.5-7.8,7.8v109.7H16.8
				c-4.3,0-7.8,3.5-7.8,7.8v305.5c0,4.3,3.5,7.8,7.8,7.8h360.3c13,0,23.5-10.5,23.5-23.5V370C450.8,357,481,305.8,468,255.7z
				 M298.8,91.2h15.7v62.7h-15.7V91.2z M126.5,20.7c8.7,0,15.7,7,15.7,15.7h-31.3C110.8,27.7,117.8,20.7,126.5,20.7z M24.6,459.3
				v-15.7h145.6l15.7,15.7H24.6z M197,448.3l-18-18c-1.5-1.5-3.5-2.3-5.5-2.3H24.6V169.5h145.6l26.7,26.7L197,448.3L197,448.3z
				 M179,156.1c-1.5-1.5-3.5-2.3-5.5-2.3H87.3V52h54.8v23.5c0,4.3-3.5,7.8-7.8,7.8s-7.8-3.5-7.8-7.8v-7.8h-15.7v7.8
				c0,13,10.5,23.5,23.5,23.5s23.5-10.5,23.5-23.5V52h125.3v101.8h-47c-2.1,0-4.1,0.8-5.5,2.3l-25.8,25.8L179,156.1z M212.6,196.2
				l26.7-26.7H385v16.1c-2.6-0.2-5.2-0.4-7.8-0.4c-51.9,0-93.9,42.1-93.9,94c0,42.8,29,80.1,70.4,90.8v58H236.1
				c-2.1,0-4.1,0.8-5.5,2.3l-18,18V196.2L212.6,196.2z M223.7,459.3l15.7-15.7h114.3v7.8c0,2.7,0.5,5.3,1.4,7.8H223.7V459.3z
				 M385,451.5c0,4.3-3.5,7.8-7.8,7.8s-7.8-3.5-7.8-7.8v-15.7H385V451.5z M385,420.2h-15.7v-47.4c2.6,0.2,5.2,0.4,7.8,0.4
				s5.2-0.2,7.8-0.4v47.4H385z M377.1,357.5c-43.3,0-78.3-35.1-78.3-78.3s35.1-78.3,78.3-78.3s78.3,35.1,78.3,78.3
				C455.5,322.4,420.4,357.5,377.1,357.5z"/>
		</g>
	</g>
	<g>
		<g>
			<path class="st0" d="M377.1,214.9c-35.5,0-64.2,28.8-64.2,64.2c0,35.5,28.8,64.2,64.2,64.2s64.2-28.8,64.2-64.2
				C441.4,243.7,412.6,214.9,377.1,214.9z M377.1,327.7c-26.8,0-48.6-21.7-48.6-48.6s21.7-48.6,48.6-48.6
				c26.8,0,48.5,21.8,48.6,48.6l0,0C425.7,306,404,327.7,377.1,327.7z"/>
		</g>
	</g>
	<g>
		<g>
			<rect x="173.5" y="83.3" class="st0" width="15.7" height="15.7"/>
		</g>
	</g>
	<g>
		<g>
			<rect x="204.8" y="83.3" class="st0" width="54.8" height="15.7"/>
		</g>
	</g>
	<g>
		<g>
			<rect x="110.8" y="114.7" class="st0" width="148.8" height="15.7"/>
		</g>
	</g>
	<g>
		<g>
			<rect x="63.8" y="294.8" class="st0" width="15.7" height="15.7"/>
		</g>
	</g>
	<g>
		<g>
			<rect x="95.1" y="294.8" class="st0" width="78.3" height="15.7"/>
		</g>
	</g>
	<g>
		<g>
			<rect x="48.1" y="326.2" class="st0" width="125.3" height="15.7"/>
		</g>
	</g>
	<g>
		<g>
			<rect x="48.1" y="357.5" class="st0" width="125.3" height="15.7"/>
		</g>
	</g>
	<g>
		<g>
			<rect x="48.1" y="388.8" class="st0" width="94" height="15.7"/>
		</g>
	</g>
	<g>
		<g>
			<rect x="236.1" y="294.8" class="st0" width="31.3" height="15.7"/>
		</g>
	</g>
	<g>
		<g>
			<rect x="236.1" y="326.2" class="st0" width="47" height="15.7"/>
		</g>
	</g>
	<g>
		<g>
			<rect x="236.1" y="357.5" class="st0" width="70.5" height="15.7"/>
		</g>
	</g>
	<g>
		<g>
			<rect x="236.1" y="388.8" class="st0" width="94" height="15.7"/>
		</g>
	</g>
	<g>
		<g>
			<path class="st0" d="M165.6,193H56c-4.3,0-7.8,3.5-7.8,7.8v62.7c0,4.3,3.5,7.8,7.8,7.8h109.7c4.3,0,7.8-3.5,7.8-7.8v-62.7
				C173.5,196.5,170,193,165.6,193z M157.8,255.7h-94v-47h94V255.7z"/>
		</g>
	</g>
</g>
</svg>
