<?xml version="1.0" encoding="utf-8"?>
<!-- Generator: Adobe Illustrator 22.0.0, SVG Export Plug-In . SVG Version: 6.00 Build 0)  -->
<svg version="1.1" id="Layer_1" xmlns="http://www.w3.org/2000/svg" xmlns:xlink="http://www.w3.org/1999/xlink" x="0px" y="0px"
	 viewBox="0 0 470 470" style="enable-background:new 0 0 470 470;" xml:space="preserve">
<style type="text/css">
	.st0{fill:#487284;}
</style>
<g>
	<path class="st0" d="M422.5,38.7h-38.8c-4,0-7.2,3.2-7.2,7.2s3.2,7.2,7.2,7.2h13.4c-2.7,4.5-4.3,9.7-4.3,15.3v339.4
		c0,4,3.2,7.2,7.2,7.2s7.2-3.2,7.2-7.2V68.4c0-8.4,6.9-15.3,15.3-15.3s15.3,6.9,15.3,15.3v339.4c0,20.9-17,37.8-37.8,37.8
		c-20.9,0-37.8-17-37.8-37.8V17.2c0-4-3.2-7.2-7.2-7.2H25c-4,0-7.2,3.2-7.2,7.2v390.6c0,28.8,23.4,52.2,52.2,52.2h330
		c28.8,0,52.2-23.4,52.2-52.2V68.4C452.2,52,438.8,38.7,422.5,38.7z M70,445.6c-20.9,0-37.8-17-37.8-37.8V24.4h315.6v383.5
		c0,14.9,6.3,28.3,16.3,37.8L70,445.6L70,445.6z"/>
	<path class="st0" d="M316.7,48.3H63.3c-4,0-7.2,3.2-7.2,7.2v71.8c0,4,3.2,7.2,7.2,7.2h253.4c4,0,7.2-3.2,7.2-7.2V55.5
		C323.9,51.5,320.7,48.3,316.7,48.3z M309.5,120.1h-239V62.7h239V120.1z"/>
	<path class="st0" d="M316.7,148.8H63.3c-4,0-7.2,3.2-7.2,7.2s3.2,7.2,7.2,7.2h253.4c4,0,7.2-3.2,7.2-7.2S320.7,148.8,316.7,148.8z"
		/>
	<path class="st0" d="M316.7,206.3H204.4c-4,0-7.2,3.2-7.2,7.2s3.2,7.2,7.2,7.2h112.3c4,0,7.2-3.2,7.2-7.2S320.7,206.3,316.7,206.3z
		"/>
	<path class="st0" d="M175.6,206.3H63.3c-4,0-7.2,3.2-7.2,7.2s3.2,7.2,7.2,7.2h112.3c4,0,7.2-3.2,7.2-7.2S179.6,206.3,175.6,206.3z"
		/>
	<path class="st0" d="M316.7,235H204.4c-4,0-7.2,3.2-7.2,7.2s3.2,7.2,7.2,7.2h112.3c4,0,7.2-3.2,7.2-7.2S320.7,235,316.7,235z"/>
	<path class="st0" d="M175.6,235H63.3c-4,0-7.2,3.2-7.2,7.2s3.2,7.2,7.2,7.2h112.3c4,0,7.2-3.2,7.2-7.2S179.6,235,175.6,235z"/>
	<path class="st0" d="M316.7,263.7H204.4c-4,0-7.2,3.2-7.2,7.2s3.2,7.2,7.2,7.2h112.3c4,0,7.2-3.2,7.2-7.2
		C323.9,266.9,320.7,263.7,316.7,263.7z"/>
	<path class="st0" d="M316.7,292.4H204.4c-4,0-7.2,3.2-7.2,7.2s3.2,7.2,7.2,7.2h112.3c4,0,7.2-3.2,7.2-7.2
		C323.9,295.7,320.7,292.4,316.7,292.4z"/>
	<path class="st0" d="M204.4,335.5h74c4,0,7.2-3.2,7.2-7.2s-3.2-7.2-7.2-7.2h-74c-4,0-7.2,3.2-7.2,7.2S200.4,335.5,204.4,335.5z"/>
	<path class="st0" d="M278.4,407.3h-74c-4,0-7.2,3.2-7.2,7.2s3.2,7.2,7.2,7.2h74c4,0,7.2-3.2,7.2-7.2
		C285.6,410.6,282.4,407.3,278.4,407.3z"/>
	<path class="st0" d="M316.7,378.6H204.4c-4,0-7.2,3.2-7.2,7.2s3.2,7.2,7.2,7.2h112.3c4,0,7.2-3.2,7.2-7.2
		C323.9,381.8,320.7,378.6,316.7,378.6z"/>
	<path class="st0" d="M175.6,263.7H63.3c-4,0-7.2,3.2-7.2,7.2v143.6c0,4,3.2,7.2,7.2,7.2h112.3c4,0,7.2-3.2,7.2-7.2V270.9
		C182.8,266.9,179.6,263.7,175.6,263.7z M168.5,407.3h-98V278.1h98V407.3z"/>
</g>
</svg>
