<?xml version="1.0" encoding="utf-8"?>
<!-- Generator: Adobe Illustrator 22.0.0, SVG Export Plug-In . SVG Version: 6.00 Build 0)  -->
<svg version="1.1" id="Layer_1" xmlns="http://www.w3.org/2000/svg" xmlns:xlink="http://www.w3.org/1999/xlink" x="0px" y="0px"
	 viewBox="0 0 512 512" style="enable-background:new 0 0 512 512;" xml:space="preserve">
<style type="text/css">
	.st0{fill:#487284;}
</style>
<g>
	<g>
		<g>
			<path class="st0" d="M308.2,120.7c-9-10.2-23.1-16-38.6-16c-27.7,0-52.5,18.9-55.2,42.2c-1.2,10.7,2.1,21,9.3,29.1
				c8.9,10,22.8,15.7,38.3,15.7c28.4,0,52.9-18.5,55.6-42.2C318.8,139,315.5,128.8,308.2,120.7z M295.3,146.9
				c-1.4,12.1-16.7,22.4-33.4,22.4c-8.9,0-17-3.1-21.6-8.2c-3-3.4-4.3-7.3-3.8-11.6c1.4-11.9,16.8-22.4,33-22.4
				c9,0,17.2,3.2,21.9,8.5C293.6,137.9,295.9,141.7,295.3,146.9z"/>
		</g>
	</g>
	<g>
		<g>
			<path class="st0" d="M297.7,359.3c-2.8-1.9-9.3-6.3-4.1-36.8c0.1-0.7,0.7-3.1,1.5-6.9c1.9-8.7,5.4-24.9,9.2-43v-0.1
				c3.9-19.5,0.8-36.6-8.9-49.4c-8.7-11.5-22.6-18.6-38.9-19.9c-24.2-1.9-49.5,12.5-57.3,26.7c-3.6,6.3-1.9,11.4-0.5,13.9
				c1.7,3.1,4.1,4.8,5.9,6.1c2.8,2,9.2,6.5,3.1,36.9c-0.6,2.8-9.1,46.2-10.2,52.3v0.1c-3.4,19.6,0,36.8,10.2,49.1
				c16.4,19.9,41.4,19,42.4,19c23.3,0,46.6-14.5,53.6-28.3c3.4-6.4,1.6-11.5,0.2-13.9C302,362.2,299.5,360.6,297.7,359.3z
				 M282.3,268.1c-3.8,18-7.3,34.1-9.1,42.8c-1.3,5.9-1.5,7.1-1.6,7.6v0.1c-5.7,32.7,0.1,47,8.2,54.9c-2.2,2-5.3,4.1-9,6.1
				c-7.4,3.8-15.6,5.8-22.5,5.4c-10.1-0.5-18.1-4.2-23.1-10.5c-5.9-7.4-7.8-18.2-5.6-31.3c1.2-6.6,9.8-50,10.1-51.8v-0.1
				c6.5-32.5,1.2-46.9-6.8-55.1c2.3-1.9,5.4-4,9.2-5.8c7.5-3.6,15.8-5.4,22.7-4.8c10.1,0.8,18,4.6,22.9,11.1
				C283.3,244.2,284.9,255.1,282.3,268.1z"/>
		</g>
	</g>
	<g>
		<g>
			<path class="st0" d="M441.4,382.5c30.8-37,47.7-82.6,47.7-129.3c0-57.2-24.4-110.8-68.7-151.2C376.5,62.1,318.1,40,256,40
				S135.5,62.1,91.5,102.1c-44.3,40.3-68.7,94-68.7,151.2s24.4,110.9,68.7,151.2c44,40,102.4,62.1,164.5,62.1
				c38.8,0,77.1-8.9,111-25.7l81.2,30.4c1.3,0.5,2.6,0.7,3.9,0.7c2.8,0,5.5-1,7.6-3c3.1-2.9,4.3-7.2,3.2-11.3L441.4,382.5z
				 M370.2,418.2c-3-1.1-6.3-0.9-9.1,0.6c-31.8,16.6-68.2,25.4-105.1,25.4c-116.2,0-210.7-85.6-210.7-190.9S139.8,62.4,256,62.4
				S466.7,148,466.7,253.3c0,43.8-15.9,85-46.1,119.2c-2.5,2.9-3.4,6.8-2.4,10.5l17,59.6L370.2,418.2z"/>
		</g>
	</g>
</g>
</svg>
