<?xml version="1.0" encoding="utf-8"?>
<!-- Generator: Adobe Illustrator 22.0.0, SVG Export Plug-In . SVG Version: 6.00 Build 0)  -->
<svg version="1.1" id="Layer_1" xmlns="http://www.w3.org/2000/svg" xmlns:xlink="http://www.w3.org/1999/xlink" x="0px" y="0px"
	 viewBox="0 0 512 512" style="enable-background:new 0 0 512 512;" xml:space="preserve">
<style type="text/css">
	.st0{fill:#487284;}
</style>
<g>
	<g>
		<g>
			<path class="st0" d="M290.2,243.1c1.5,2.9,4.4,4.5,7.4,4.5c1.3,0,2.6-0.3,3.8-0.9c0.5-0.2,49.5-25.2,73.7-32.8
				c4.4-1.4,6.8-6.1,5.4-10.5s-6-6.8-10.5-5.4c-25.5,8.1-74.2,32.8-76.3,33.9C289.8,234,288.2,239,290.2,243.1z"/>
			<path class="st0" d="M297.7,147.7c1.3,0,2.6-0.3,3.8-0.9c0.5-0.3,49.5-25.2,73.7-32.8c4.4-1.4,6.8-6.1,5.4-10.5s-6-6.8-10.5-5.4
				c-25.5,8.1-74.2,32.8-76.3,33.9c-4.1,2.1-5.7,7.1-3.7,11.2C291.7,146,294.6,147.7,297.7,147.7z"/>
			<path class="st0" d="M497.7,131c-4.6,0-8.3,3.7-8.3,8.3v325c0,13.8-11.2,25-25,25h-200v-19.2c12.2-4.2,43.8-14.2,75-14.2
				c72.6,0,121.9,16.1,122.4,16.2c2.5,0.8,5.3,0.4,7.5-1.2s3.5-4.1,3.5-6.8V97.7c0-3.9-2.7-7.3-6.5-8.1c0,0-6.5-1.5-17.7-3.5
				c-4.5-0.8-8.9,2.2-9.7,6.7c-0.8,4.5,2.2,8.9,6.7,9.7c4.3,0.8,7.8,1.5,10.6,2v348.8c-18.9-5-60.8-13.9-116.7-13.9
				c-36.3,0-72,11.9-83,16c-9.8-4.3-39.5-16-75.3-16c-57.4,0-104.7,9.5-125,14.3V104.1c16.6-4.1,65.8-14.8,125-14.8
				c30.4,0,56.4,9.5,66.7,13.7v328c0,3,1.6,5.8,4.2,7.2c2.6,1.5,5.8,1.4,8.4-0.1c0.8-0.5,83.4-49.8,156.7-74.2
				c3.4-1.1,5.7-4.3,5.7-7.9V14.3c0-2.7-1.3-5.3-3.6-6.8c-2.2-1.6-5.1-1.9-7.7-1c-66.7,25-134.1,67-134.8,67.4
				c-3.9,2.4-5.1,7.6-2.7,11.5s7.6,5.1,11.5,2.7c0.6-0.4,59.3-36.9,120.6-61.5V350c-56.9,19.8-116.3,52-141.7,66.5V97.7
				c0-3.2-1.8-6-4.6-7.5c-1.4-0.7-35.6-17.5-78.7-17.5C105.9,72.7,48,89,45.6,89.7c-3.6,1-6,4.3-6,8v366.7c0,2.6,1.2,5.1,3.3,6.7
				c1.5,1.1,3.2,1.7,5,1.7c0.8,0,1.5-0.1,2.3-0.3c0.6-0.2,58.2-16.3,131-16.3c30.5,0,56.5,9.5,66.7,13.7v19.6h-200
				c-13.8,0-25-11.2-25-25v-325c0-4.6-3.7-8.3-8.3-8.3S6,134.7,6,139.3v325c0,23,18.7,41.7,41.7,41.7h416.7
				c23,0,41.7-18.7,41.7-41.7v-325C506,134.7,502.3,131,497.7,131z"/>
			<path class="st0" d="M290.2,193.1c1.5,2.9,4.4,4.5,7.4,4.5c1.3,0,2.6-0.3,3.8-0.9c0.5-0.3,49.5-25.2,73.7-32.8
				c4.4-1.4,6.8-6.1,5.4-10.5s-6-6.8-10.5-5.4c-25.5,8.1-74.2,32.8-76.3,33.9C289.8,184,288.2,189,290.2,193.1z"/>
			<path class="st0" d="M290.2,293.1c1.5,2.9,4.4,4.5,7.4,4.5c1.3,0,2.6-0.3,3.8-0.9c0.5-0.3,49.5-25.2,73.7-32.8
				c4.4-1.4,6.8-6.1,5.4-10.5s-6-6.8-10.5-5.4c-25.5,8.1-74.2,32.8-76.3,33.9C289.8,284,288.2,289,290.2,293.1z"/>
			<path class="st0" d="M207.9,160.7c-51.5-12.1-109.9,3.3-112.4,4c-4.4,1.2-7.1,5.8-5.9,10.2c1,3.7,4.4,6.2,8,6.2
				c0.7,0,1.4-0.1,2.2-0.3c0.6-0.2,56.9-15,104.3-3.8c4.5,1,9-1.7,10-6.2C215.2,166.2,212.4,161.7,207.9,160.7z"/>
			<path class="st0" d="M207.9,210.7c-51.5-12.1-109.9,3.3-112.4,4c-4.4,1.2-7.1,5.8-5.9,10.2c1,3.7,4.4,6.2,8,6.2
				c0.7,0,1.4-0.1,2.2-0.3c0.6-0.2,56.9-15,104.3-3.8c4.5,1,9-1.7,10-6.2C215.2,216.2,212.4,211.7,207.9,210.7z"/>
			<path class="st0" d="M290.2,343.1c1.5,2.9,4.4,4.5,7.4,4.5c1.3,0,2.6-0.3,3.8-0.9c0.5-0.3,49.5-25.2,73.7-32.8
				c4.4-1.4,6.8-6.1,5.4-10.5s-6-6.8-10.5-5.4c-25.5,8.1-74.2,32.8-76.3,33.9C289.8,334,288.2,339,290.2,343.1z"/>
			<path class="st0" d="M207.9,260.7c-51.5-12.1-109.9,3.3-112.4,4c-4.4,1.2-7.1,5.8-5.9,10.2c1,3.7,4.4,6.2,8,6.2
				c0.7,0,1.4-0.1,2.2-0.3c0.6-0.2,56.9-15,104.3-3.8c4.5,1,9-1.7,10-6.2C215.2,266.2,212.4,261.7,207.9,260.7z"/>
			<path class="st0" d="M207.9,360.7c-51.5-12.1-109.9,3.3-112.4,4c-4.4,1.2-7.1,5.8-5.9,10.2c1,3.7,4.4,6.2,8,6.2
				c0.7,0,1.4-0.1,2.2-0.3c0.6-0.2,56.9-15,104.3-3.8c4.5,1,9-1.7,10-6.2C215.2,366.2,212.4,361.7,207.9,360.7z"/>
			<path class="st0" d="M207.9,310.7c-51.5-12.1-109.9,3.3-112.4,4c-4.4,1.2-7.1,5.8-5.9,10.2c1,3.7,4.4,6.2,8,6.2
				c0.7,0,1.4-0.1,2.2-0.3c0.6-0.2,56.9-15,104.3-3.8c4.5,1,9-1.7,10-6.2C215.2,316.2,212.4,311.7,207.9,310.7z"/>
		</g>
	</g>
</g>
</svg>
