<?xml version="1.0" encoding="utf-8"?>
<!-- Generator: Adobe Illustrator 22.0.0, SVG Export Plug-In . SVG Version: 6.00 Build 0)  -->
<svg version="1.1" id="Capa_1" xmlns="http://www.w3.org/2000/svg" xmlns:xlink="http://www.w3.org/1999/xlink" x="0px" y="0px"
	 viewBox="0 0 512 512" style="enable-background:new 0 0 512 512;" xml:space="preserve">
<style type="text/css">
	.st0{fill:#487284;}
</style>
<g>
	<g>
		<g>
			<path class="st0" d="M220,147.8c-1.9-1.9-4.4-2.9-7.1-2.9s-5.2,1.1-7.1,2.9c-1.9,1.9-2.9,4.4-2.9,7.1s1.1,5.2,2.9,7.1
				c1.9,1.9,4.4,2.9,7.1,2.9s5.2-1.1,7.1-2.9c1.9-1.9,2.9-4.4,2.9-7.1C222.9,152.3,221.9,149.7,220,147.8z"/>
		</g>
	</g>
	<g>
		<g>
			<path class="st0" d="M437.3,281l-71.1-71.1c15.4-22.1,13.2-52.8-6.4-72.4c-10.7-10.7-24.9-16.6-40.1-16.6
				c-11.7,0-22.9,3.6-32.4,10.2L216.2,60c-2.4-2.3-5.7-3.4-9-2.7c-3.3,0.6-6,2.8-7.3,5.9l-97.1,228l-52.7,52.7
				c-13.8,13.8-21.4,32.2-21.4,51.7s7.6,37.9,21.4,51.7c13.8,13.8,32.2,21.4,51.7,21.4s37.9-7.6,51.7-21.4l8.6-8.6l56.2,56.2
				c2,2,4.5,2.9,7.1,2.9s5.1-1,7.1-2.9l38.4-38.4c3.9-3.9,3.9-10.2,0-14.1l-52.8-52.8l216.1-92.1c3.1-1.3,5.3-4,5.9-7.3
				C440.7,286.8,439.7,283.4,437.3,281z M319.7,140.9c9.8,0,19,3.8,25.9,10.7c11.8,11.8,13.9,29.8,6.1,43.8l-49.9-49.9
				C307.2,142.5,313.3,140.9,319.7,140.9z M139.4,433c-10,10-23.4,15.6-37.6,15.6S74.3,443,64.3,433s-15.6-23.4-15.6-37.6
				s5.5-27.5,15.6-37.6l47-47l1.4,1.4l73.7,73.7L139.4,433z M249.6,449.3l-24.3,24.3l-49.1-49.1l24.3-24.3L249.6,449.3z
				 M373.5,301.4c-0.2-0.2-0.4-0.4-0.6-0.6L246.3,174.1c-3.9-3.9-10.2-3.9-14.1,0c-3.9,3.9-3.9,10.2,0,14.1l121.6,121.6l-150.9,64.3
				l-79.7-79.7l89.4-210l200.2,200.2L373.5,301.4z"/>
		</g>
	</g>
	<g>
		<g>
			<path class="st0" d="M443.8,54c-3.9-3.9-10.2-3.9-14.1,0l-26.8,26.8c-3.9,3.9-3.9,10.2,0,14.1c2,2,4.5,2.9,7.1,2.9s5.1-1,7.1-2.9
				l26.8-26.8C447.7,64.2,447.7,57.9,443.8,54z"/>
		</g>
	</g>
	<g>
		<g>
			<path class="st0" d="M392.4,105.4c-1.9-1.9-4.4-2.9-7.1-2.9c-2.6,0-5.2,1.1-7.1,2.9s-2.9,4.4-2.9,7.1s1.1,5.2,2.9,7.1
				c1.9,1.9,4.4,2.9,7.1,2.9s5.2-1.1,7.1-2.9c1.9-1.9,2.9-4.4,2.9-7.1S394.3,107.2,392.4,105.4z"/>
		</g>
	</g>
	<g>
		<g>
			<path class="st0" d="M330.1,14.3c-5.5,0-10,4.5-10,10V61c0,5.5,4.5,10,10,10s10-4.5,10-10V24.3C340.1,18.8,335.6,14.3,330.1,14.3
				z"/>
		</g>
	</g>
	<g>
		<g>
			<path class="st0" d="M473.3,156.1h-38c-5.5,0-10,4.5-10,10s4.5,10,10,10h38c5.5,0,10-4.5,10-10S478.8,156.1,473.3,156.1z"/>
		</g>
	</g>
</g>
</svg>
