<?xml version="1.0" encoding="utf-8"?>
<!-- Generator: Adobe Illustrator 22.0.0, SVG Export Plug-In . SVG Version: 6.00 Build 0)  -->
<svg version="1.1" id="Capa_1" xmlns="http://www.w3.org/2000/svg" xmlns:xlink="http://www.w3.org/1999/xlink" x="0px" y="0px"
	 viewBox="0 0 20 20" style="enable-background:new 0 0 20 20;" xml:space="preserve">
<style type="text/css">
	.st0{fill:#FFFFFF;}
</style>
<g>
	<path class="st0" d="M19.9,19.2l-6.8-6.8c1.2-1.3,1.9-3.1,1.9-5C15,3.4,11.6,0,7.5,0C3.4,0,0,3.4,0,7.5C0,11.6,3.4,15,7.5,15
		c1.9,0,3.7-0.7,5-1.9l6.8,6.8c0.1,0.1,0.2,0.1,0.3,0.1c0.1,0,0.2,0,0.3-0.1C20,19.7,20,19.4,19.9,19.2z M7.5,14.1
		c-3.6,0-6.6-3-6.6-6.6s3-6.6,6.6-6.6c3.6,0,6.6,3,6.6,6.6c0,1.7-0.6,3.2-1.6,4.3c-0.2,0.2-0.4,0.4-0.6,0.6
		C10.7,13.5,9.2,14.1,7.5,14.1z"/>
</g>
</svg>
