<?xml version="1.0" encoding="utf-8"?>
<!-- Generator: Adobe Illustrator 22.0.0, SVG Export Plug-In . SVG Version: 6.00 Build 0)  -->
<svg version="1.1" id="Capa_1" xmlns="http://www.w3.org/2000/svg" xmlns:xlink="http://www.w3.org/1999/xlink" x="0px" y="0px"
	 viewBox="0 0 33.1 25" style="enable-background:new 0 0 33.1 25;" xml:space="preserve">
<style type="text/css">
	.st0{fill:#FFFFFF;}
</style>
<path class="st0" d="M20.1,20.1c1.8-2,2.9-4.7,2.9-7.6c0-3.1-1.2-5.8-3.1-7.9l0,0l0,0c-2-2.1-4.8-3.5-8-3.6l0,0h-0.2
	c0,0-0.1,0-0.2,0s-0.1,0-0.2,0h-0.2l0,0C8,1.1,5.2,2.5,3.1,4.6l0,0l0,0C1.2,6.7,0,9.4,0,12.5c0,2.9,1.1,5.6,2.9,7.6l0,0c0,0,0,0,0,0
	c2,2.3,4.9,3.7,8.2,3.8l0,0h0.2c0,0,0.1,0,0.2,0s0.1,0,0.2,0h0.2l0,0C15.1,23.9,18,22.4,20.1,20.1C20.1,20.2,20.1,20.2,20.1,20.1
	L20.1,20.1z M0.8,12.9h4.8c0,1.7,0.4,3.3,1,4.8c-1.1,0.4-2.2,1-3.2,1.6C1.8,17.6,0.9,15.4,0.8,12.9z M3.5,5.4c1,0.6,2,1.1,3.1,1.5
	C6,8.5,5.6,10.3,5.6,12.1H0.8C0.9,9.5,1.9,7.2,3.5,5.4z M22.2,12.1h-4.8c0-1.8-0.4-3.6-1.1-5.2c1.1-0.4,2.1-0.9,3.1-1.5
	C21.1,7.2,22.1,9.5,22.2,12.1z M11.1,6.9c-1.1,0-2.3-0.2-3.4-0.5c0.8-1.7,1.9-3.1,3.4-4.4V6.9z M11.1,7.7v4.4H6.3
	c0-1.7,0.4-3.4,1.1-5C8.6,7.5,9.8,7.7,11.1,7.7z M11.9,7.7c1.3,0,2.5-0.2,3.7-0.6c0.6,1.5,1,3.2,1.1,5h-4.8V7.7z M11.9,6.9V2
	c1.4,1.2,2.5,2.7,3.4,4.4C14.2,6.7,13,6.9,11.9,6.9z M16,6.2c-0.8-1.6-1.8-3.1-3.1-4.3c2.3,0.3,4.4,1.3,6,2.9
	C18,5.4,17.1,5.8,16,6.2z M7,6.2C6,5.8,5,5.4,4.1,4.8c1.6-1.5,3.7-2.6,6-2.9C8.8,3.1,7.7,4.6,7,6.2z M6.3,12.9h4.8v4
	c-1.3,0-2.6,0.2-3.8,0.6C6.7,16,6.4,14.5,6.3,12.9z M11.1,17.7v5.3c-1.5-1.3-2.7-2.9-3.5-4.7C8.7,17.9,9.9,17.7,11.1,17.7z M11.9,23
	v-5.3c1.2,0,2.4,0.2,3.5,0.6C14.6,20,13.4,21.6,11.9,23z M11.9,16.9v-4h4.8c0,1.6-0.4,3.1-0.9,4.6C14.5,17.1,13.2,16.9,11.9,16.9z
	 M17.4,12.9h4.8c-0.1,2.5-1,4.7-2.5,6.5c-1-0.7-2.1-1.2-3.2-1.6C17.1,16.2,17.4,14.6,17.4,12.9z M3.8,20c1-0.6,1.9-1.1,3-1.5
	c0.8,1.7,1.9,3.3,3.3,4.6C7.7,22.8,5.5,21.7,3.8,20z M12.9,23.1c1.4-1.3,2.5-2.9,3.3-4.6c1,0.4,2.1,0.9,3,1.5
	C17.5,21.7,15.3,22.8,12.9,23.1z"/>
<polygon class="st0" points="26.4,12.1 33.1,12.1 29.7,17.1 "/>
</svg>
