<?xml version="1.0" encoding="utf-8"?>
<!-- Generator: Adobe Illustrator 22.0.0, SVG Export Plug-In . SVG Version: 6.00 Build 0)  -->
<svg version="1.1" id="Layer_1" xmlns="http://www.w3.org/2000/svg" xmlns:xlink="http://www.w3.org/1999/xlink" x="0px" y="0px"
	 width="66px" height="107px" viewBox="0 0 66 107" style="enable-background:new 0 0 66 107;" xml:space="preserve">
<style type="text/css">
	.st0{fill:#487284;}
</style>
<path class="st0" d="M65.9,27c-0.2-0.4-0.7-0.7-1.1-0.6l-5.6,0.9l0.9-5.6c0.1-0.4-0.2-0.9-0.6-1.1c-0.4-0.2-0.9-0.2-1.2,0.2
	l-6.5,6.5c-0.2,0.2-0.2,0.3-0.3,0.6l-1.1,6.7l-3.8,3.7c-5.1-4.8-11.8-7.4-18.9-7.4c-7.4,0-14.4,2.9-19.6,8.2C2.9,44.3,0,51.2,0,58.7
	s2.9,14.4,8.2,19.6c5.3,5.3,12.2,8.2,19.6,8.2s14.4-2.9,19.7-8.2s8.2-12.2,8.2-19.6c0-5.9-1.8-11.5-5.3-16.3c-0.3-0.5-1-0.6-1.5-0.2
	c-0.5,0.3-0.6,1-0.2,1.5c3.2,4.4,4.9,9.6,4.9,15.1c0,14.2-11.5,25.6-25.6,25.6S2.2,72.8,2.2,58.7S13.8,33,27.9,33
	c6.5,0,12.6,2.4,17.4,6.8l-4.8,4.8c-3.5-3-8-4.7-12.6-4.7C17.5,39.9,9,48.4,9,58.7s8.5,18.9,18.9,18.9s18.8-8.6,18.8-19
	c0-3.5-1-6.8-2.7-9.8c-0.3-0.5-1-0.7-1.5-0.3c-0.5,0.3-0.7,1-0.3,1.5c1.6,2.6,2.5,5.6,2.5,8.7c0,9.2-7.5,16.7-16.7,16.7
	S11,67.9,11,58.7s7.6-16.7,16.8-16.7c4.1,0,8,1.5,11,4.2l-4.8,4.8c-1.7-1.4-4-2.2-6.3-2.2c-5.5,0-10,4.4-10,10c0,5.5,4.4,10,10,10
	s10-4.4,10-10c0-1-0.2-2-0.4-2.9c-0.2-0.6-0.7-0.9-1.3-0.7c-0.6,0.2-0.9,0.7-0.7,1.3c0.2,0.7,0.3,1.5,0.3,2.2c0,4.3-3.5,7.8-7.8,7.8
	S20,62.9,20,58.6s3.5-7.8,7.8-7.8c1.7,0,3.4,0.6,4.8,1.6l-5.5,5.5c-0.4,0.4-0.4,1.1,0,1.5c0.2,0.2,0.5,0.3,0.7,0.3
	c0.2,0,0.6-0.1,0.7-0.3l18.9-18.8l4.4-4.4l6.7-1.1c0.2,0,0.4-0.2,0.6-0.3l6.5-6.5C66,27.9,66.1,27.4,65.9,27L65.9,27z M53.5,28.6
	l4-4l-0.6,3.5l-4,4L53.5,28.6z M57.9,33l-3.5,0.6l4-4L62,29C62,29.1,57.9,33,57.9,33z"/>
</svg>
