<?xml version="1.0" encoding="utf-8"?>
<!-- Generator: Adobe Illustrator 22.0.0, SVG Export Plug-In . SVG Version: 6.00 Build 0)  -->
<svg version="1.1" id="Layer_1" xmlns="http://www.w3.org/2000/svg" xmlns:xlink="http://www.w3.org/1999/xlink" x="0px" y="0px"
	 width="66px" height="107px" viewBox="0 0 66 107" style="enable-background:new 0 0 66 107;" xml:space="preserve">
<style type="text/css">
	.st0{fill:#FFFFFF;}
</style>
<g>
	<g>
		<g>
			<path class="st0" d="M65.6,37.4L47.8,18.9c-0.3-0.3-0.6-0.4-1-0.4H20.2c-3,0-5.4,2.5-5.4,5.4v18.8H4c-2.2,0-4,1.8-4,4V67
				c0,2.2,1.8,4,4,4h10.8v12.1c0,3,2.5,5.4,5.4,5.4h40.4c3,0,5.4-2.5,5.4-5.3V38.4C66,38,65.8,37.7,65.6,37.4z M47.2,22.2l14.6,15.1
				H47.2V22.2z M4,68.3c-0.7,0-1.3-0.6-1.3-1.3V46.8c0-0.7,0.6-1.3,1.3-1.3h36.4c0.7,0,1.3,0.6,1.3,1.3V67c0,0.7-0.6,1.3-1.3,1.3H4z
				 M63.3,83.2c0,1.5-1.2,2.7-2.7,2.7H20.2c-1.5,0-2.7-1.2-2.7-2.7V71h22.9c2.2,0,4-1.8,4-4V46.8c0-2.2-1.8-4-4-4H17.5V23.9
				c0-1.5,1.2-2.7,2.7-2.7h24.2v17.5c0,0.7,0.6,1.3,1.3,1.3h17.5L63.3,83.2L63.3,83.2z"/>
		</g>
	</g>
	<g>
		<g>
			<path class="st0" d="M16.1,52.6c-0.4-0.6-1-1-1.7-1.1c-0.4-0.1-1.4-0.2-2.8-0.2H7.9v11.6h2.4v-4.4h1.5c1.1,0,1.8-0.1,2.5-0.2
				c0.4-0.1,0.8-0.3,1.2-0.5s0.7-0.6,1-1.1s0.4-1.1,0.4-1.8C16.8,54,16.5,53.2,16.1,52.6z M14.1,55.9c-0.2,0.3-0.4,0.4-0.7,0.5
				c-0.4,0.2-1,0.2-1.8,0.2h-1.3v-3.3h1.1c0.9,0,1.4,0,1.7,0.1c0.4,0.1,0.7,0.3,1,0.5c0.3,0.3,0.4,0.6,0.4,1.1
				C14.4,55.3,14.3,55.6,14.1,55.9z"/>
		</g>
	</g>
	<g>
		<g>
			<path class="st0" d="M28,54.6c-0.3-0.7-0.6-1.4-1.1-1.8c-0.5-0.4-1.1-0.9-1.8-1.1c-0.5-0.2-1.2-0.3-2.2-0.3h-4.3V63H23
				c0.9,0,1.6-0.1,2.1-0.3c0.7-0.3,1.2-0.5,1.7-1s1-1.2,1.2-2c0.3-0.7,0.4-1.5,0.4-2.5C28.4,56.1,28.3,55.3,28,54.6z M25.7,59.3
				c-0.2,0.5-0.4,0.9-0.6,1.1c-0.3,0.3-0.5,0.4-1,0.4c-0.3,0.1-0.7,0.1-1.4,0.1H21l0,0v-7.7h1.1c1,0,1.6,0,1.9,0.1
				c0.4,0.1,0.8,0.3,1.1,0.5c0.3,0.3,0.5,0.6,0.7,1.1c0.2,0.4,0.3,1.1,0.3,2.1C26,58.1,25.9,58.8,25.7,59.3z"/>
		</g>
	</g>
	<g>
		<g>
			<polygon class="st0" points="38.3,53.3 38.3,51.4 30.4,51.4 30.4,63 32.7,63 32.7,58.1 37.6,58.1 37.6,56 32.7,56 32.7,53.3 			
				"/>
		</g>
	</g>
</g>
</svg>
